%TF.GenerationSoftware,KiCad,Pcbnew,(5.99.0-11497-g0fb864d596)*%
%TF.CreationDate,2022-01-24T21:34:27-05:00*%
%TF.ProjectId,Main_Board_Ver2,4d61696e-5f42-46f6-9172-645f56657232,rev?*%
%TF.SameCoordinates,Original*%
%TF.FileFunction,Soldermask,Bot*%
%TF.FilePolarity,Negative*%
%FSLAX46Y46*%
G04 Gerber Fmt 4.6, Leading zero omitted, Abs format (unit mm)*
G04 Created by KiCad (PCBNEW (5.99.0-11497-g0fb864d596)) date 2022-01-24 21:34:27*
%MOMM*%
%LPD*%
G01*
G04 APERTURE LIST*
G04 Aperture macros list*
%AMRoundRect*
0 Rectangle with rounded corners*
0 $1 Rounding radius*
0 $2 $3 $4 $5 $6 $7 $8 $9 X,Y pos of 4 corners*
0 Add a 4 corners polygon primitive as box body*
4,1,4,$2,$3,$4,$5,$6,$7,$8,$9,$2,$3,0*
0 Add four circle primitives for the rounded corners*
1,1,$1+$1,$2,$3*
1,1,$1+$1,$4,$5*
1,1,$1+$1,$6,$7*
1,1,$1+$1,$8,$9*
0 Add four rect primitives between the rounded corners*
20,1,$1+$1,$2,$3,$4,$5,0*
20,1,$1+$1,$4,$5,$6,$7,0*
20,1,$1+$1,$6,$7,$8,$9,0*
20,1,$1+$1,$8,$9,$2,$3,0*%
G04 Aperture macros list end*
%ADD10R,1.600000X1.600000*%
%ADD11O,1.600000X1.600000*%
%ADD12R,2.100000X2.100000*%
%ADD13C,2.100000*%
%ADD14O,2.500000X5.000000*%
%ADD15O,2.250000X4.500000*%
%ADD16C,5.600000*%
%ADD17RoundRect,0.250000X0.250000X0.475000X-0.250000X0.475000X-0.250000X-0.475000X0.250000X-0.475000X0*%
G04 APERTURE END LIST*
D10*
%TO.C,A1*%
X140843000Y-88900000D03*
D11*
X143383000Y-88900000D03*
X145923000Y-88900000D03*
X148463000Y-88900000D03*
X151003000Y-88900000D03*
X153543000Y-88900000D03*
X156083000Y-88900000D03*
X158623000Y-88900000D03*
X163703000Y-88900000D03*
X166243000Y-88900000D03*
X168783000Y-88900000D03*
X171323000Y-88900000D03*
X173863000Y-88900000D03*
X176403000Y-88900000D03*
X176403000Y-137160000D03*
X173863000Y-137160000D03*
X171323000Y-137160000D03*
X168783000Y-137160000D03*
X166243000Y-137160000D03*
X163703000Y-137160000D03*
X161163000Y-137160000D03*
X158623000Y-137160000D03*
X154563000Y-137160000D03*
X152023000Y-137160000D03*
X149483000Y-137160000D03*
X146943000Y-137160000D03*
X144403000Y-137160000D03*
X141863000Y-137160000D03*
X139323000Y-137160000D03*
X136783000Y-137160000D03*
X134243000Y-137160000D03*
X131703000Y-137160000D03*
%TD*%
D10*
%TO.C,A3*%
X186690000Y-130810000D03*
D11*
X189230000Y-130810000D03*
X191770000Y-130810000D03*
X194310000Y-130810000D03*
X196850000Y-130810000D03*
X199390000Y-130810000D03*
X201930000Y-130810000D03*
X204470000Y-130810000D03*
X204470000Y-118110000D03*
X201930000Y-118110000D03*
X199390000Y-118110000D03*
X196850000Y-118110000D03*
X194310000Y-118110000D03*
X191770000Y-118110000D03*
X189230000Y-118110000D03*
X186690000Y-118110000D03*
%TD*%
D12*
%TO.C,J3*%
X218440000Y-132080000D03*
D13*
X218440000Y-127000000D03*
X218440000Y-121920000D03*
X218440000Y-116840000D03*
%TD*%
D10*
%TO.C,A2*%
X186690000Y-107950000D03*
D11*
X189230000Y-107950000D03*
X191770000Y-107950000D03*
X194310000Y-107950000D03*
X196850000Y-107950000D03*
X199390000Y-107950000D03*
X201930000Y-107950000D03*
X204470000Y-107950000D03*
X204470000Y-95250000D03*
X201930000Y-95250000D03*
X199390000Y-95250000D03*
X196850000Y-95250000D03*
X194310000Y-95250000D03*
X191770000Y-95250000D03*
X189230000Y-95250000D03*
X186690000Y-95250000D03*
%TD*%
D12*
%TO.C,J2*%
X218440000Y-109220000D03*
D13*
X218440000Y-104140000D03*
X218440000Y-99060000D03*
X218440000Y-93980000D03*
%TD*%
D14*
%TO.C,J1*%
X113284000Y-79375000D03*
D15*
X119284000Y-79375000D03*
%TD*%
D16*
%TO.C,REF\u002A\u002A*%
X119250000Y-68500000D03*
%TD*%
%TO.C,REF\u002A\u002A*%
X119250000Y-145000000D03*
%TD*%
%TO.C,REF\u002A\u002A*%
X218500000Y-141000000D03*
%TD*%
%TO.C,REF\u002A\u002A*%
X218500000Y-85250000D03*
%TD*%
D17*
%TO.C,C1*%
X204531000Y-104140000D03*
X202631000Y-104140000D03*
%TD*%
%TO.C,C4*%
X189164000Y-104140000D03*
X187264000Y-104140000D03*
%TD*%
%TO.C,C5*%
X189164000Y-127075000D03*
X187264000Y-127075000D03*
%TD*%
%TO.C,C3*%
X204531000Y-127000000D03*
X202631000Y-127000000D03*
%TD*%
M02*
