%TF.GenerationSoftware,KiCad,Pcbnew,(5.99.0-11497-g0fb864d596)*%
%TF.CreationDate,2022-01-24T21:34:27-05:00*%
%TF.ProjectId,Main_Board_Ver2,4d61696e-5f42-46f6-9172-645f56657232,rev?*%
%TF.SameCoordinates,Original*%
%TF.FileFunction,Copper,L2,Bot*%
%TF.FilePolarity,Positive*%
%FSLAX46Y46*%
G04 Gerber Fmt 4.6, Leading zero omitted, Abs format (unit mm)*
G04 Created by KiCad (PCBNEW (5.99.0-11497-g0fb864d596)) date 2022-01-24 21:34:27*
%MOMM*%
%LPD*%
G01*
G04 APERTURE LIST*
G04 Aperture macros list*
%AMRoundRect*
0 Rectangle with rounded corners*
0 $1 Rounding radius*
0 $2 $3 $4 $5 $6 $7 $8 $9 X,Y pos of 4 corners*
0 Add a 4 corners polygon primitive as box body*
4,1,4,$2,$3,$4,$5,$6,$7,$8,$9,$2,$3,0*
0 Add four circle primitives for the rounded corners*
1,1,$1+$1,$2,$3*
1,1,$1+$1,$4,$5*
1,1,$1+$1,$6,$7*
1,1,$1+$1,$8,$9*
0 Add four rect primitives between the rounded corners*
20,1,$1+$1,$2,$3,$4,$5,0*
20,1,$1+$1,$4,$5,$6,$7,0*
20,1,$1+$1,$6,$7,$8,$9,0*
20,1,$1+$1,$8,$9,$2,$3,0*%
G04 Aperture macros list end*
%TA.AperFunction,ComponentPad*%
%ADD10R,1.600000X1.600000*%
%TD*%
%TA.AperFunction,ComponentPad*%
%ADD11O,1.600000X1.600000*%
%TD*%
%TA.AperFunction,ComponentPad*%
%ADD12R,2.100000X2.100000*%
%TD*%
%TA.AperFunction,ComponentPad*%
%ADD13C,2.100000*%
%TD*%
%TA.AperFunction,ComponentPad*%
%ADD14O,2.500000X5.000000*%
%TD*%
%TA.AperFunction,ComponentPad*%
%ADD15O,2.250000X4.500000*%
%TD*%
%TA.AperFunction,ComponentPad*%
%ADD16C,5.600000*%
%TD*%
%TA.AperFunction,SMDPad,CuDef*%
%ADD17RoundRect,0.250000X0.250000X0.475000X-0.250000X0.475000X-0.250000X-0.475000X0.250000X-0.475000X0*%
%TD*%
%TA.AperFunction,Conductor*%
%ADD18C,0.250000*%
%TD*%
%TA.AperFunction,Conductor*%
%ADD19C,0.750000*%
%TD*%
G04 APERTURE END LIST*
D10*
%TO.P,A1,1,NC*%
%TO.N,unconnected-(A1-Pad1)*%
X140843000Y-88900000D03*
D11*
%TO.P,A1,2,IOREF*%
%TO.N,unconnected-(A1-Pad2)*%
X143383000Y-88900000D03*
%TO.P,A1,3,~RESET*%
%TO.N,unconnected-(A1-Pad3)*%
X145923000Y-88900000D03*
%TO.P,A1,4,3V3*%
%TO.N,unconnected-(A1-Pad4)*%
X148463000Y-88900000D03*
%TO.P,A1,5,+5V*%
%TO.N,Uno_5V*%
X151003000Y-88900000D03*
%TO.P,A1,6,GND*%
%TO.N,unconnected-(A1-Pad6)*%
X153543000Y-88900000D03*
%TO.P,A1,7,GND*%
%TO.N,GND_Uno*%
X156083000Y-88900000D03*
%TO.P,A1,8,VIN*%
%TO.N,unconnected-(A1-Pad8)*%
X158623000Y-88900000D03*
%TO.P,A1,9,A0*%
%TO.N,unconnected-(A1-Pad9)*%
X163703000Y-88900000D03*
%TO.P,A1,10,A1*%
%TO.N,unconnected-(A1-Pad10)*%
X166243000Y-88900000D03*
%TO.P,A1,11,A2*%
%TO.N,unconnected-(A1-Pad11)*%
X168783000Y-88900000D03*
%TO.P,A1,12,A3*%
%TO.N,unconnected-(A1-Pad12)*%
X171323000Y-88900000D03*
%TO.P,A1,13,SDA/A4*%
%TO.N,unconnected-(A1-Pad13)*%
X173863000Y-88900000D03*
%TO.P,A1,14,SCL/A5*%
%TO.N,unconnected-(A1-Pad14)*%
X176403000Y-88900000D03*
%TO.P,A1,15,D0/RX*%
%TO.N,unconnected-(A1-Pad15)*%
X176403000Y-137160000D03*
%TO.P,A1,16,D1/TX*%
%TO.N,unconnected-(A1-Pad16)*%
X173863000Y-137160000D03*
%TO.P,A1,17,D2*%
%TO.N,D2*%
X171323000Y-137160000D03*
%TO.P,A1,18,D3*%
%TO.N,D3*%
X168783000Y-137160000D03*
%TO.P,A1,19,D4*%
%TO.N,D4*%
X166243000Y-137160000D03*
%TO.P,A1,20,D5*%
%TO.N,D5*%
X163703000Y-137160000D03*
%TO.P,A1,21,D6*%
%TO.N,unconnected-(A1-Pad21)*%
X161163000Y-137160000D03*
%TO.P,A1,22,D7*%
%TO.N,unconnected-(A1-Pad22)*%
X158623000Y-137160000D03*
%TO.P,A1,23,D8*%
%TO.N,unconnected-(A1-Pad23)*%
X154563000Y-137160000D03*
%TO.P,A1,24,D9*%
%TO.N,unconnected-(A1-Pad24)*%
X152023000Y-137160000D03*
%TO.P,A1,25,D10*%
%TO.N,unconnected-(A1-Pad25)*%
X149483000Y-137160000D03*
%TO.P,A1,26,D11*%
%TO.N,unconnected-(A1-Pad26)*%
X146943000Y-137160000D03*
%TO.P,A1,27,D12*%
%TO.N,unconnected-(A1-Pad27)*%
X144403000Y-137160000D03*
%TO.P,A1,28,D13*%
%TO.N,unconnected-(A1-Pad28)*%
X141863000Y-137160000D03*
%TO.P,A1,29,GND*%
%TO.N,unconnected-(A1-Pad29)*%
X139323000Y-137160000D03*
%TO.P,A1,30,AREF*%
%TO.N,unconnected-(A1-Pad30)*%
X136783000Y-137160000D03*
%TO.P,A1,31,SDA/A4*%
%TO.N,unconnected-(A1-Pad31)*%
X134243000Y-137160000D03*
%TO.P,A1,32,SCL/A5*%
%TO.N,unconnected-(A1-Pad32)*%
X131703000Y-137160000D03*
%TD*%
D10*
%TO.P,A3,1,GND*%
%TO.N,GND_Uno*%
X186690000Y-130810000D03*
D11*
%TO.P,A3,2,VDD*%
%TO.N,Uno_5V*%
X189230000Y-130810000D03*
%TO.P,A3,3,1B*%
%TO.N,Net-(A3-Pad3)*%
X191770000Y-130810000D03*
%TO.P,A3,4,1A*%
%TO.N,Net-(A3-Pad4)*%
X194310000Y-130810000D03*
%TO.P,A3,5,2A*%
%TO.N,Net-(A3-Pad5)*%
X196850000Y-130810000D03*
%TO.P,A3,6,2B*%
%TO.N,Net-(A3-Pad6)*%
X199390000Y-130810000D03*
%TO.P,A3,7,GND*%
%TO.N,GND_Barrel*%
X201930000Y-130810000D03*
%TO.P,A3,8,VMOT*%
%TO.N,12V*%
X204470000Y-130810000D03*
%TO.P,A3,9,~ENABLE*%
%TO.N,unconnected-(A3-Pad9)*%
X204470000Y-118110000D03*
%TO.P,A3,10,MS1*%
%TO.N,unconnected-(A3-Pad10)*%
X201930000Y-118110000D03*
%TO.P,A3,11,MS2*%
%TO.N,unconnected-(A3-Pad11)*%
X199390000Y-118110000D03*
%TO.P,A3,12,MS3*%
%TO.N,unconnected-(A3-Pad12)*%
X196850000Y-118110000D03*
%TO.P,A3,13,~RESET*%
%TO.N,Net-(A3-Pad13)*%
X194310000Y-118110000D03*
%TO.P,A3,14,~SLEEP*%
X191770000Y-118110000D03*
%TO.P,A3,15,STEP*%
%TO.N,D2*%
X189230000Y-118110000D03*
%TO.P,A3,16,DIR*%
%TO.N,D3*%
X186690000Y-118110000D03*
%TD*%
D12*
%TO.P,J3,1,1*%
%TO.N,Net-(A3-Pad3)*%
X218440000Y-132080000D03*
D13*
%TO.P,J3,2,2*%
%TO.N,Net-(A3-Pad4)*%
X218440000Y-127000000D03*
%TO.P,J3,3,3*%
%TO.N,Net-(A3-Pad5)*%
X218440000Y-121920000D03*
%TO.P,J3,4,4*%
%TO.N,Net-(A3-Pad6)*%
X218440000Y-116840000D03*
%TD*%
D10*
%TO.P,A2,1,GND*%
%TO.N,GND_Uno*%
X186690000Y-107950000D03*
D11*
%TO.P,A2,2,VDD*%
%TO.N,Uno_5V*%
X189230000Y-107950000D03*
%TO.P,A2,3,1B*%
%TO.N,Net-(A2-Pad3)*%
X191770000Y-107950000D03*
%TO.P,A2,4,1A*%
%TO.N,Net-(A2-Pad4)*%
X194310000Y-107950000D03*
%TO.P,A2,5,2A*%
%TO.N,Net-(A2-Pad5)*%
X196850000Y-107950000D03*
%TO.P,A2,6,2B*%
%TO.N,Net-(A2-Pad6)*%
X199390000Y-107950000D03*
%TO.P,A2,7,GND*%
%TO.N,GND_Barrel*%
X201930000Y-107950000D03*
%TO.P,A2,8,VMOT*%
%TO.N,12V*%
X204470000Y-107950000D03*
%TO.P,A2,9,~ENABLE*%
%TO.N,unconnected-(A2-Pad9)*%
X204470000Y-95250000D03*
%TO.P,A2,10,MS1*%
%TO.N,unconnected-(A2-Pad10)*%
X201930000Y-95250000D03*
%TO.P,A2,11,MS2*%
%TO.N,unconnected-(A2-Pad11)*%
X199390000Y-95250000D03*
%TO.P,A2,12,MS3*%
%TO.N,unconnected-(A2-Pad12)*%
X196850000Y-95250000D03*
%TO.P,A2,13,~RESET*%
%TO.N,Net-(A2-Pad13)*%
X194310000Y-95250000D03*
%TO.P,A2,14,~SLEEP*%
X191770000Y-95250000D03*
%TO.P,A2,15,STEP*%
%TO.N,D4*%
X189230000Y-95250000D03*
%TO.P,A2,16,DIR*%
%TO.N,D5*%
X186690000Y-95250000D03*
%TD*%
D12*
%TO.P,J2,1,1*%
%TO.N,Net-(A2-Pad3)*%
X218440000Y-109220000D03*
D13*
%TO.P,J2,2,2*%
%TO.N,Net-(A2-Pad4)*%
X218440000Y-104140000D03*
%TO.P,J2,3,3*%
%TO.N,Net-(A2-Pad5)*%
X218440000Y-99060000D03*
%TO.P,J2,4,4*%
%TO.N,Net-(A2-Pad6)*%
X218440000Y-93980000D03*
%TD*%
D14*
%TO.P,J1,1*%
%TO.N,12V*%
X113284000Y-79375000D03*
D15*
%TO.P,J1,2*%
%TO.N,GND_Barrel*%
X119284000Y-79375000D03*
%TD*%
D16*
%TO.P,REF\u002A\u002A,1*%
%TO.N,N/C*%
X119250000Y-68500000D03*
%TD*%
%TO.P,REF\u002A\u002A,1*%
%TO.N,N/C*%
X119250000Y-145000000D03*
%TD*%
%TO.P,REF\u002A\u002A,1*%
%TO.N,N/C*%
X218500000Y-141000000D03*
%TD*%
%TO.P,REF\u002A\u002A,1*%
%TO.N,N/C*%
X218500000Y-85250000D03*
%TD*%
D17*
%TO.P,C1,1*%
%TO.N,12V*%
X204531000Y-104140000D03*
%TO.P,C1,2*%
%TO.N,GND_Barrel*%
X202631000Y-104140000D03*
%TD*%
%TO.P,C4,1*%
%TO.N,Uno_5V*%
X189164000Y-104140000D03*
%TO.P,C4,2*%
%TO.N,GND_Uno*%
X187264000Y-104140000D03*
%TD*%
%TO.P,C5,1*%
%TO.N,Uno_5V*%
X189164000Y-127075000D03*
%TO.P,C5,2*%
%TO.N,GND_Uno*%
X187264000Y-127075000D03*
%TD*%
%TO.P,C3,1*%
%TO.N,12V*%
X204531000Y-127000000D03*
%TO.P,C3,2*%
%TO.N,GND_Barrel*%
X202631000Y-127000000D03*
%TD*%
D18*
%TO.N,Uno_5V*%
X189175000Y-125455000D02*
X188733000Y-125013000D01*
X151638000Y-86868000D02*
X151003000Y-87503000D01*
X178700000Y-115000000D02*
X180875000Y-112825000D01*
X189164000Y-127075000D02*
X189164000Y-130744000D01*
X189230000Y-112045000D02*
X189230000Y-107950000D01*
X189164000Y-104140000D02*
X189164000Y-107884000D01*
X178816000Y-98552000D02*
X178816000Y-87376000D01*
X188450000Y-112825000D02*
X189230000Y-112045000D01*
X189164000Y-102550000D02*
X188722000Y-102108000D01*
X189164000Y-104140000D02*
X189164000Y-102550000D01*
X178308000Y-86868000D02*
X151638000Y-86868000D01*
X180875000Y-112825000D02*
X188450000Y-112825000D01*
X178816000Y-87376000D02*
X178308000Y-86868000D01*
X181188000Y-125013000D02*
X178700000Y-122525000D01*
X182372000Y-102108000D02*
X178816000Y-98552000D01*
X188733000Y-125013000D02*
X181188000Y-125013000D01*
X178700000Y-122525000D02*
X178700000Y-115000000D01*
X188722000Y-102108000D02*
X182372000Y-102108000D01*
X189175000Y-127045000D02*
X189175000Y-125455000D01*
X151003000Y-87503000D02*
X151003000Y-88900000D01*
%TO.N,GND_Uno*%
X182150000Y-127100000D02*
X187274000Y-127100000D01*
X187274000Y-128826000D02*
X186700000Y-129400000D01*
X177975000Y-114425000D02*
X177975000Y-114600000D01*
X187264000Y-104140000D02*
X187264000Y-105979000D01*
X156083000Y-87642000D02*
X156225000Y-87500000D01*
X177975000Y-122925000D02*
X182150000Y-127100000D01*
X177975000Y-99100000D02*
X183015000Y-104140000D01*
X187264000Y-105979000D02*
X186690000Y-106553000D01*
X186690000Y-107950000D02*
X186690000Y-111435000D01*
X186700000Y-129400000D02*
X186700000Y-130797000D01*
X156083000Y-88900000D02*
X156083000Y-87642000D01*
X187274000Y-126987000D02*
X187274000Y-128826000D01*
X183015000Y-104140000D02*
X187264000Y-104140000D01*
X186150000Y-111975000D02*
X180425000Y-111975000D01*
X177975000Y-87950000D02*
X177975000Y-99100000D01*
X177525000Y-87500000D02*
X177975000Y-87950000D01*
X180425000Y-111975000D02*
X177975000Y-114425000D01*
X186690000Y-111435000D02*
X186150000Y-111975000D01*
X186690000Y-106553000D02*
X186690000Y-107950000D01*
X156225000Y-87500000D02*
X177525000Y-87500000D01*
X177975000Y-114600000D02*
X177975000Y-122925000D01*
D19*
%TO.N,GND_Barrel*%
X201930000Y-106680000D02*
X202631000Y-105979000D01*
X200914000Y-123571000D02*
X202631000Y-125288000D01*
X181610000Y-114300000D02*
X180086000Y-115824000D01*
X179070000Y-85725000D02*
X180340000Y-86995000D01*
X180340000Y-86995000D02*
X180340000Y-97790000D01*
X122174000Y-80010000D02*
X122174000Y-84836000D01*
X181991000Y-123571000D02*
X200914000Y-123571000D01*
X180086000Y-121666000D02*
X181991000Y-123571000D01*
X180086000Y-115824000D02*
X180086000Y-121666000D01*
X202631000Y-105979000D02*
X202631000Y-104140000D01*
X201930000Y-107950000D02*
X201930000Y-106680000D01*
X121539000Y-79375000D02*
X122174000Y-80010000D01*
X202631000Y-125288000D02*
X202631000Y-128839000D01*
X122174000Y-84836000D02*
X123063000Y-85725000D01*
X202631000Y-102428000D02*
X202631000Y-104140000D01*
X183261000Y-100711000D02*
X200914000Y-100711000D01*
X200914000Y-114300000D02*
X181610000Y-114300000D01*
X201930000Y-113284000D02*
X200914000Y-114300000D01*
X200914000Y-100711000D02*
X202631000Y-102428000D01*
X180340000Y-97790000D02*
X183261000Y-100711000D01*
X119284000Y-79375000D02*
X121539000Y-79375000D01*
X201930000Y-129540000D02*
X201930000Y-130810000D01*
X202631000Y-128839000D02*
X201930000Y-129540000D01*
X201930000Y-107950000D02*
X201930000Y-113284000D01*
X123063000Y-85725000D02*
X179070000Y-85725000D01*
%TO.N,12V*%
X203200000Y-98806000D02*
X184150000Y-98806000D01*
X204531000Y-100137000D02*
X203200000Y-98806000D01*
X124460000Y-82931000D02*
X124460000Y-76581000D01*
X204470000Y-115316000D02*
X204470000Y-107950000D01*
X184150000Y-98806000D02*
X182245000Y-96901000D01*
X204531000Y-104140000D02*
X204531000Y-100137000D01*
X182118000Y-117348000D02*
X182118000Y-120650000D01*
X183134000Y-121666000D02*
X203200000Y-121666000D01*
X116586000Y-76962000D02*
X116586000Y-78486000D01*
X116586000Y-78486000D02*
X115697000Y-79375000D01*
X204531000Y-104140000D02*
X204531000Y-107889000D01*
X183136000Y-116330000D02*
X203452000Y-116330000D01*
X124460000Y-76581000D02*
X123571000Y-75692000D01*
X117856000Y-75692000D02*
X116586000Y-76962000D01*
X125349000Y-83820000D02*
X124460000Y-82931000D01*
X182118000Y-120650000D02*
X183134000Y-121666000D01*
X180213000Y-83820000D02*
X125349000Y-83820000D01*
X123571000Y-75692000D02*
X117856000Y-75692000D01*
X115697000Y-79375000D02*
X113284000Y-79375000D01*
X203452000Y-116330000D02*
X203454000Y-116332000D01*
X183136000Y-116330000D02*
X182118000Y-117348000D01*
X203200000Y-121666000D02*
X204531000Y-122997000D01*
X203454000Y-116332000D02*
X204470000Y-115316000D01*
X204531000Y-122997000D02*
X204531000Y-130749000D01*
X182245000Y-96901000D02*
X182245000Y-85852000D01*
X182245000Y-85852000D02*
X180213000Y-83820000D01*
%TD*%
M02*
