%TF.GenerationSoftware,KiCad,Pcbnew,(5.99.0-11497-g0fb864d596)*%
%TF.CreationDate,2022-01-24T21:34:27-05:00*%
%TF.ProjectId,Main_Board_Ver2,4d61696e-5f42-46f6-9172-645f56657232,rev?*%
%TF.SameCoordinates,Original*%
%TF.FileFunction,Legend,Top*%
%TF.FilePolarity,Positive*%
%FSLAX46Y46*%
G04 Gerber Fmt 4.6, Leading zero omitted, Abs format (unit mm)*
G04 Created by KiCad (PCBNEW (5.99.0-11497-g0fb864d596)) date 2022-01-24 21:34:27*
%MOMM*%
%LPD*%
G01*
G04 APERTURE LIST*
%ADD10C,0.009260*%
%ADD11C,0.150000*%
%ADD12C,0.120000*%
%ADD13C,0.127000*%
%ADD14C,0.400000*%
G04 APERTURE END LIST*
D10*
X200596211Y-89449004D02*
X199952058Y-89819948D01*
X200794180Y-89336174D02*
X200596211Y-89449004D01*
X200848971Y-89305460D02*
X200794180Y-89336174D01*
X200869284Y-89294753D02*
X200848971Y-89305460D01*
X200869284Y-89294753D02*
X200869284Y-89294753D01*
X201142356Y-89449176D02*
X200869284Y-89294753D01*
X201786510Y-89820383D02*
X201142356Y-89449176D01*
X201786510Y-89820383D02*
X201786510Y-89820383D01*
X202694910Y-90345977D02*
X201786510Y-89820383D01*
X202694910Y-90345977D02*
X202694910Y-90345977D01*
X202694910Y-91410684D02*
X202694910Y-90345977D01*
X202694910Y-91410684D02*
X202694910Y-91410684D01*
X202694910Y-92475400D02*
X202694910Y-91410684D01*
X202694910Y-92475400D02*
X202694910Y-92475400D01*
X202597898Y-92531370D02*
X202694910Y-92475400D01*
X202597898Y-92531370D02*
X202597898Y-92531370D01*
X201685645Y-93058195D02*
X202597898Y-92531370D01*
X201685645Y-93058195D02*
X201685645Y-93058195D01*
X200870404Y-93529060D02*
X201685645Y-93058195D01*
X200870404Y-93529060D02*
X200870404Y-93529060D01*
X199957031Y-93002272D02*
X200870404Y-93529060D01*
X199957031Y-93002272D02*
X199957031Y-93002272D01*
X199043658Y-92475493D02*
X199957031Y-93002272D01*
X199043658Y-92475493D02*
X199043658Y-92475493D01*
X199043658Y-91410341D02*
X199043658Y-92475493D01*
X199043658Y-91410341D02*
X199043658Y-91410341D01*
X199043658Y-90345190D02*
X199043658Y-91410341D01*
X199043658Y-90345190D02*
X199043658Y-90345190D01*
X199952058Y-89819948D02*
X199043658Y-90345190D01*
X200832959Y-90011850D02*
X200834002Y-90388964D01*
X200830119Y-89703297D02*
X200832959Y-90011850D01*
X200828160Y-89584676D02*
X200830119Y-89703297D01*
X200825915Y-89495128D02*
X200828160Y-89584676D01*
X200823436Y-89438633D02*
X200825915Y-89495128D01*
X200822126Y-89424022D02*
X200823436Y-89438633D01*
X200820778Y-89419167D02*
X200822126Y-89424022D01*
X200820778Y-89419167D02*
X200820778Y-89419167D01*
X200761036Y-89450672D02*
X200820778Y-89419167D01*
X200617629Y-89531886D02*
X200761036Y-89450672D01*
X200192780Y-89777605D02*
X200617629Y-89531886D01*
X199772165Y-90024643D02*
X200192780Y-89777605D01*
X199634049Y-90107508D02*
X199772165Y-90024643D01*
X199581715Y-90141322D02*
X199634049Y-90107508D01*
X199581715Y-90141322D02*
X199581715Y-90141322D01*
X199582810Y-90142521D02*
X199581715Y-90141322D01*
X199586035Y-90144121D02*
X199582810Y-90142521D01*
X199598441Y-90148415D02*
X199586035Y-90144121D01*
X199618063Y-90153992D02*
X199598441Y-90148415D01*
X199644031Y-90160635D02*
X199618063Y-90153992D01*
X199711523Y-90176267D02*
X199644031Y-90160635D01*
X199793955Y-90193597D02*
X199711523Y-90176267D01*
X199793955Y-90193597D02*
X199793955Y-90193597D01*
X199834685Y-90201857D02*
X199793955Y-90193597D01*
X199871078Y-90209411D02*
X199834685Y-90201857D01*
X199903322Y-90216328D02*
X199871078Y-90209411D01*
X199917948Y-90219568D02*
X199903322Y-90216328D01*
X199931608Y-90222675D02*
X199917948Y-90219568D01*
X199944326Y-90225657D02*
X199931608Y-90222675D01*
X199956126Y-90228521D02*
X199944326Y-90225657D01*
X199967031Y-90231278D02*
X199956126Y-90228521D01*
X199977064Y-90233936D02*
X199967031Y-90231278D01*
X199986250Y-90236502D02*
X199977064Y-90233936D01*
X199994613Y-90238986D02*
X199986250Y-90236502D01*
X200002175Y-90241397D02*
X199994613Y-90238986D01*
X200008961Y-90243742D02*
X200002175Y-90241397D01*
X200014994Y-90246030D02*
X200008961Y-90243742D01*
X200020299Y-90248271D02*
X200014994Y-90246030D01*
X200024898Y-90250472D02*
X200020299Y-90248271D01*
X200028816Y-90252642D02*
X200024898Y-90250472D01*
X200030526Y-90253718D02*
X200028816Y-90252642D01*
X200032075Y-90254789D02*
X200030526Y-90253718D01*
X200033466Y-90255857D02*
X200032075Y-90254789D01*
X200034701Y-90256923D02*
X200033466Y-90255857D01*
X200035783Y-90257987D02*
X200034701Y-90256923D01*
X200036716Y-90259051D02*
X200035783Y-90257987D01*
X200037502Y-90260116D02*
X200036716Y-90259051D01*
X200038144Y-90261183D02*
X200037502Y-90260116D01*
X200038646Y-90262253D02*
X200038144Y-90261183D01*
X200039010Y-90263327D02*
X200038646Y-90262253D01*
X200039238Y-90264406D02*
X200039010Y-90263327D01*
X200039335Y-90265491D02*
X200039238Y-90264406D01*
X200039303Y-90266584D02*
X200039335Y-90265491D01*
X200039146Y-90267684D02*
X200039303Y-90266584D01*
X200038865Y-90268794D02*
X200039146Y-90267684D01*
X200038464Y-90269915D02*
X200038865Y-90268794D01*
X200037946Y-90271047D02*
X200038464Y-90269915D01*
X200037314Y-90272192D02*
X200037946Y-90271047D01*
X200036570Y-90273350D02*
X200037314Y-90272192D01*
X200035719Y-90274524D02*
X200036570Y-90273350D01*
X200033703Y-90276918D02*
X200035719Y-90274524D01*
X200031290Y-90279385D02*
X200033703Y-90276918D01*
X200031290Y-90279385D02*
X200031290Y-90279385D01*
X200028593Y-90281196D02*
X200031290Y-90279385D01*
X200024696Y-90282609D02*
X200028593Y-90281196D01*
X200019624Y-90283625D02*
X200024696Y-90282609D01*
X200013397Y-90284249D02*
X200019624Y-90283625D01*
X200006040Y-90284480D02*
X200013397Y-90284249D01*
X199997574Y-90284323D02*
X200006040Y-90284480D01*
X199977408Y-90282850D02*
X199997574Y-90284323D01*
X199953081Y-90279847D02*
X199977408Y-90282850D01*
X199924772Y-90275334D02*
X199953081Y-90279847D01*
X199892663Y-90269327D02*
X199924772Y-90275334D01*
X199856935Y-90261846D02*
X199892663Y-90269327D01*
X199856935Y-90261846D02*
X199856935Y-90261846D01*
X199825074Y-90255060D02*
X199856935Y-90261846D01*
X199794675Y-90248954D02*
X199825074Y-90255060D01*
X199766453Y-90243647D02*
X199794675Y-90248954D01*
X199741120Y-90239255D02*
X199766453Y-90243647D01*
X199719389Y-90235897D02*
X199741120Y-90239255D01*
X199701976Y-90233689D02*
X199719389Y-90235897D01*
X199695110Y-90233053D02*
X199701976Y-90233689D01*
X199689591Y-90232749D02*
X199695110Y-90233053D01*
X199685508Y-90232791D02*
X199689591Y-90232749D01*
X199682950Y-90233194D02*
X199685508Y-90232791D01*
X199682950Y-90233194D02*
X199682950Y-90233194D01*
X199692657Y-90246540D02*
X199682950Y-90233194D01*
X199725672Y-90282418D02*
X199692657Y-90246540D01*
X199848649Y-90408943D02*
X199725672Y-90282418D01*
X200231512Y-90791274D02*
X199848649Y-90408943D01*
X200623831Y-91174941D02*
X200231512Y-90791274D01*
X200758628Y-91303135D02*
X200623831Y-91174941D01*
X200799326Y-91340098D02*
X200758628Y-91303135D01*
X200817898Y-91354695D02*
X200799326Y-91340098D01*
X200817898Y-91354695D02*
X200817898Y-91354695D01*
X200821344Y-91337940D02*
X200817898Y-91354695D01*
X200824461Y-91286658D02*
X200821344Y-91337940D01*
X200829547Y-91090159D02*
X200824461Y-91286658D01*
X200832835Y-90784495D02*
X200829547Y-91090159D01*
X200834002Y-90388964D02*
X200832835Y-90784495D01*
X201177834Y-89566922D02*
X201775416Y-89911247D01*
X200992437Y-89460822D02*
X201177834Y-89566922D01*
X200920059Y-89420241D02*
X200992437Y-89460822D01*
X200920059Y-89420241D02*
X200920059Y-89420241D01*
X200916821Y-89437741D02*
X200920059Y-89420241D01*
X200914041Y-89490924D02*
X200916821Y-89437741D01*
X200909987Y-89692901D02*
X200914041Y-89490924D01*
X200908160Y-90003289D02*
X200909987Y-89692901D01*
X200908826Y-90399206D02*
X200908160Y-90003289D01*
X200908826Y-90399206D02*
X200908826Y-90399206D01*
X200913382Y-91384088D02*
X200908826Y-90399206D01*
X200913382Y-91384088D02*
X200913382Y-91384088D01*
X201054492Y-91467802D02*
X200913382Y-91384088D01*
X201054492Y-91467802D02*
X201054492Y-91467802D01*
X201083198Y-91484621D02*
X201054492Y-91467802D01*
X201110675Y-91500309D02*
X201083198Y-91484621D01*
X201136270Y-91514524D02*
X201110675Y-91500309D01*
X201159333Y-91526923D02*
X201136270Y-91514524D01*
X201179213Y-91537163D02*
X201159333Y-91526923D01*
X201195258Y-91544900D02*
X201179213Y-91537163D01*
X201201640Y-91547724D02*
X201195258Y-91544900D01*
X201206819Y-91549793D02*
X201201640Y-91547724D01*
X201210714Y-91551065D02*
X201206819Y-91549793D01*
X201213243Y-91551498D02*
X201210714Y-91551065D01*
X201213243Y-91551498D02*
X201213243Y-91551498D01*
X201221344Y-91537677D02*
X201213243Y-91551498D01*
X201237693Y-91498612D02*
X201221344Y-91537677D01*
X201290201Y-91359081D02*
X201237693Y-91498612D01*
X201439912Y-90934731D02*
X201290201Y-91359081D01*
X201583408Y-90507735D02*
X201439912Y-90934731D01*
X201628149Y-90364896D02*
X201583408Y-90507735D01*
X201639448Y-90323682D02*
X201628149Y-90364896D01*
X201641723Y-90307379D02*
X201639448Y-90323682D01*
X201641723Y-90307379D02*
X201641723Y-90307379D01*
X201641116Y-90307082D02*
X201641723Y-90307379D01*
X201640180Y-90307063D02*
X201641116Y-90307082D01*
X201637356Y-90307835D02*
X201640180Y-90307063D01*
X201633322Y-90309646D02*
X201637356Y-90307835D01*
X201628149Y-90312444D02*
X201633322Y-90309646D01*
X201614670Y-90320806D02*
X201628149Y-90312444D01*
X201597488Y-90332522D02*
X201614670Y-90320806D01*
X201577171Y-90347190D02*
X201597488Y-90332522D01*
X201554287Y-90364413D02*
X201577171Y-90347190D01*
X201529406Y-90383789D02*
X201554287Y-90364413D01*
X201503094Y-90404919D02*
X201529406Y-90383789D01*
X201503094Y-90404919D02*
X201503094Y-90404919D01*
X201476698Y-90426221D02*
X201503094Y-90404919D01*
X201451572Y-90446094D02*
X201476698Y-90426221D01*
X201428302Y-90464104D02*
X201451572Y-90446094D01*
X201407475Y-90479815D02*
X201428302Y-90464104D01*
X201389675Y-90492793D02*
X201407475Y-90479815D01*
X201375489Y-90502601D02*
X201389675Y-90492793D01*
X201369933Y-90506181D02*
X201375489Y-90502601D01*
X201365501Y-90508805D02*
X201369933Y-90506181D01*
X201362265Y-90510420D02*
X201365501Y-90508805D01*
X201361119Y-90510831D02*
X201362265Y-90510420D01*
X201360299Y-90510970D02*
X201361119Y-90510831D01*
X201360299Y-90510970D02*
X201360299Y-90510970D01*
X201352031Y-90510386D02*
X201360299Y-90510970D01*
X201348687Y-90509653D02*
X201352031Y-90510386D01*
X201345874Y-90508621D02*
X201348687Y-90509653D01*
X201343592Y-90507288D02*
X201345874Y-90508621D01*
X201341845Y-90505652D02*
X201343592Y-90507288D01*
X201340634Y-90503709D02*
X201341845Y-90505652D01*
X201339962Y-90501458D02*
X201340634Y-90503709D01*
X201339830Y-90498894D02*
X201339962Y-90501458D01*
X201340242Y-90496015D02*
X201339830Y-90498894D01*
X201341199Y-90492819D02*
X201340242Y-90496015D01*
X201342703Y-90489303D02*
X201341199Y-90492819D01*
X201347364Y-90481299D02*
X201342703Y-90489303D01*
X201354240Y-90471981D02*
X201347364Y-90481299D01*
X201363351Y-90461327D02*
X201354240Y-90471981D01*
X201374713Y-90449316D02*
X201363351Y-90461327D01*
X201388344Y-90435924D02*
X201374713Y-90449316D01*
X201404262Y-90421130D02*
X201388344Y-90435924D01*
X201422485Y-90404913D02*
X201404262Y-90421130D01*
X201443030Y-90387249D02*
X201422485Y-90404913D01*
X201491158Y-90347496D02*
X201443030Y-90387249D01*
X201491158Y-90347496D02*
X201491158Y-90347496D01*
X201557813Y-90293330D02*
X201491158Y-90347496D01*
X201618767Y-90243333D02*
X201557813Y-90293330D01*
X201667277Y-90203065D02*
X201618767Y-90243333D01*
X201696600Y-90178086D02*
X201667277Y-90203065D01*
X201696600Y-90178086D02*
X201696600Y-90178086D01*
X201722091Y-90156417D02*
X201696600Y-90178086D01*
X201732740Y-90148992D02*
X201722091Y-90156417D01*
X201742290Y-90144350D02*
X201732740Y-90148992D01*
X201746723Y-90143193D02*
X201742290Y-90144350D01*
X201750964Y-90142875D02*
X201746723Y-90143193D01*
X201755043Y-90143444D02*
X201750964Y-90142875D01*
X201758987Y-90144949D02*
X201755043Y-90143444D01*
X201762824Y-90147436D02*
X201758987Y-90144949D01*
X201766582Y-90150955D02*
X201762824Y-90147436D01*
X201770288Y-90155553D02*
X201766582Y-90150955D01*
X201773972Y-90161277D02*
X201770288Y-90155553D01*
X201781381Y-90176297D02*
X201773972Y-90161277D01*
X201789034Y-90196398D02*
X201781381Y-90176297D01*
X201797152Y-90221964D02*
X201789034Y-90196398D01*
X201805961Y-90253378D02*
X201797152Y-90221964D01*
X201826545Y-90335278D02*
X201805961Y-90253378D01*
X201852573Y-90445165D02*
X201826545Y-90335278D01*
X201852573Y-90445165D02*
X201852573Y-90445165D01*
X201863971Y-90495163D02*
X201852573Y-90445165D01*
X201873497Y-90540068D02*
X201863971Y-90495163D01*
X201877540Y-90560492D02*
X201873497Y-90540068D01*
X201881094Y-90579499D02*
X201877540Y-90560492D01*
X201884152Y-90597041D02*
X201881094Y-90579499D01*
X201886705Y-90613072D02*
X201884152Y-90597041D01*
X201888747Y-90627542D02*
X201886705Y-90613072D01*
X201890271Y-90640405D02*
X201888747Y-90627542D01*
X201891269Y-90651612D02*
X201890271Y-90640405D01*
X201891734Y-90661115D02*
X201891269Y-90651612D01*
X201891660Y-90668868D02*
X201891734Y-90661115D01*
X201891038Y-90674821D02*
X201891660Y-90668868D01*
X201890520Y-90677108D02*
X201891038Y-90674821D01*
X201889862Y-90678927D02*
X201890520Y-90677108D01*
X201889063Y-90680273D02*
X201889862Y-90678927D01*
X201888124Y-90681139D02*
X201889063Y-90680273D01*
X201888124Y-90681139D02*
X201888124Y-90681139D01*
X201883370Y-90683561D02*
X201888124Y-90681139D01*
X201878844Y-90684715D02*
X201883370Y-90683561D01*
X201874499Y-90684490D02*
X201878844Y-90684715D01*
X201870287Y-90682773D02*
X201874499Y-90684490D01*
X201866160Y-90679453D02*
X201870287Y-90682773D01*
X201862071Y-90674419D02*
X201866160Y-90679453D01*
X201857970Y-90667560D02*
X201862071Y-90674419D01*
X201853812Y-90658765D02*
X201857970Y-90667560D01*
X201849547Y-90647921D02*
X201853812Y-90658765D01*
X201845129Y-90634918D02*
X201849547Y-90647921D01*
X201840508Y-90619644D02*
X201845129Y-90634918D01*
X201835638Y-90601987D02*
X201840508Y-90619644D01*
X201824959Y-90559082D02*
X201835638Y-90601987D01*
X201812707Y-90505312D02*
X201824959Y-90559082D01*
X201812707Y-90505312D02*
X201812707Y-90505312D01*
X201806037Y-90476028D02*
X201812707Y-90505312D01*
X201799309Y-90448127D02*
X201806037Y-90476028D01*
X201792708Y-90422261D02*
X201799309Y-90448127D01*
X201786417Y-90399082D02*
X201792708Y-90422261D01*
X201780619Y-90379242D02*
X201786417Y-90399082D01*
X201775497Y-90363394D02*
X201780619Y-90379242D01*
X201773247Y-90357171D02*
X201775497Y-90363394D01*
X201771235Y-90352190D02*
X201773247Y-90357171D01*
X201769484Y-90348534D02*
X201771235Y-90352190D01*
X201768016Y-90346282D02*
X201769484Y-90348534D01*
X201768016Y-90346282D02*
X201768016Y-90346282D01*
X201765607Y-90348103D02*
X201768016Y-90346282D01*
X201761091Y-90356391D02*
X201765607Y-90348103D01*
X201746204Y-90391089D02*
X201761091Y-90356391D01*
X201696261Y-90523989D02*
X201746204Y-90391089D01*
X201625612Y-90724451D02*
X201696261Y-90523989D01*
X201541682Y-90971944D02*
X201625612Y-90724451D01*
X201541682Y-90971944D02*
X201541682Y-90971944D01*
X201484406Y-91144620D02*
X201541682Y-90971944D01*
X201438289Y-91285908D02*
X201484406Y-91144620D01*
X201419159Y-91345664D02*
X201438289Y-91285908D01*
X201402512Y-91398632D02*
X201419159Y-91345664D01*
X201388246Y-91445166D02*
X201402512Y-91398632D01*
X201376257Y-91485619D02*
X201388246Y-91445166D01*
X201366443Y-91520344D02*
X201376257Y-91485619D01*
X201358703Y-91549694D02*
X201366443Y-91520344D01*
X201352933Y-91574021D02*
X201358703Y-91549694D01*
X201349031Y-91593681D02*
X201352933Y-91574021D01*
X201346895Y-91609024D02*
X201349031Y-91593681D01*
X201346457Y-91615188D02*
X201346895Y-91609024D01*
X201346422Y-91620405D02*
X201346457Y-91615188D01*
X201346777Y-91624720D02*
X201346422Y-91620405D01*
X201347510Y-91628177D02*
X201346777Y-91624720D01*
X201348608Y-91630820D02*
X201347510Y-91628177D01*
X201350057Y-91632693D02*
X201348608Y-91630820D01*
X201350057Y-91632693D02*
X201350057Y-91632693D01*
X201533252Y-91742565D02*
X201350057Y-91632693D01*
X201926733Y-91971951D02*
X201533252Y-91742565D01*
X202338323Y-92209411D02*
X201926733Y-91971951D01*
X202575849Y-92343504D02*
X202338323Y-92209411D01*
X202575849Y-92343504D02*
X202575849Y-92343504D01*
X202615530Y-92364294D02*
X202575849Y-92343504D01*
X202615530Y-92364294D02*
X202615530Y-92364294D01*
X202615252Y-91380300D02*
X202615530Y-92364294D01*
X202615252Y-91380300D02*
X202615252Y-91380300D01*
X202614974Y-90396316D02*
X202615252Y-91380300D01*
X202614974Y-90396316D02*
X202614974Y-90396316D01*
X201775416Y-89911247D02*
X202614974Y-90396316D01*
X199527639Y-90359105D02*
X199537395Y-90400725D01*
X199518085Y-90320309D02*
X199527639Y-90359105D01*
X199508972Y-90285182D02*
X199518085Y-90320309D01*
X199500543Y-90254571D02*
X199508972Y-90285182D01*
X199493040Y-90229323D02*
X199500543Y-90254571D01*
X199489711Y-90218975D02*
X199493040Y-90229323D01*
X199486704Y-90210285D02*
X199489711Y-90218975D01*
X199484049Y-90203360D02*
X199486704Y-90210285D01*
X199481776Y-90198304D02*
X199484049Y-90203360D01*
X199479916Y-90195224D02*
X199481776Y-90198304D01*
X199479150Y-90194459D02*
X199479916Y-90195224D01*
X199478499Y-90194226D02*
X199479150Y-90194459D01*
X199478499Y-90194226D02*
X199478499Y-90194226D01*
X199472681Y-90196436D02*
X199478499Y-90194226D01*
X199460478Y-90202468D02*
X199472681Y-90196436D01*
X199419922Y-90224338D02*
X199460478Y-90202468D01*
X199362844Y-90256509D02*
X199419922Y-90224338D01*
X199295254Y-90295656D02*
X199362844Y-90256509D01*
X199295254Y-90295656D02*
X199295254Y-90295656D01*
X199123510Y-90396316D02*
X199295254Y-90295656D01*
X199123510Y-90396316D02*
X199123510Y-90396316D01*
X199123269Y-91380727D02*
X199123510Y-90396316D01*
X199123269Y-91380727D02*
X199123269Y-91380727D01*
X199124221Y-91762398D02*
X199123269Y-91380727D01*
X199126987Y-92073902D02*
X199124221Y-91762398D01*
X199128918Y-92193319D02*
X199126987Y-92073902D01*
X199131143Y-92283166D02*
X199128918Y-92193319D01*
X199133608Y-92339435D02*
X199131143Y-92283166D01*
X199134915Y-92353725D02*
X199133608Y-92339435D01*
X199136262Y-92358117D02*
X199134915Y-92353725D01*
X199136262Y-92358117D02*
X199136262Y-92358117D01*
X199941918Y-91894967D02*
X199136262Y-92358117D01*
X199941918Y-91894967D02*
X199941918Y-91894967D01*
X200734350Y-91438826D02*
X199941918Y-91894967D01*
X200734350Y-91438826D02*
X200734350Y-91438826D01*
X200162408Y-90878534D02*
X200734350Y-91438826D01*
X200162408Y-90878534D02*
X200162408Y-90878534D01*
X199939484Y-90660934D02*
X200162408Y-90878534D01*
X199755308Y-90482640D02*
X199939484Y-90660934D01*
X199629002Y-90362058D02*
X199755308Y-90482640D01*
X199593526Y-90329161D02*
X199629002Y-90362058D01*
X199583752Y-90320567D02*
X199593526Y-90329161D01*
X199579687Y-90317594D02*
X199583752Y-90320567D01*
X199579687Y-90317594D02*
X199579687Y-90317594D01*
X199579189Y-90317782D02*
X199579687Y-90317594D01*
X199578803Y-90318409D02*
X199579189Y-90317782D01*
X199578362Y-90320934D02*
X199578803Y-90318409D01*
X199578349Y-90325080D02*
X199578362Y-90320934D01*
X199578747Y-90330761D02*
X199578349Y-90325080D01*
X199580720Y-90346381D02*
X199578747Y-90330761D01*
X199584154Y-90367098D02*
X199580720Y-90346381D01*
X199588928Y-90392217D02*
X199584154Y-90367098D01*
X199594915Y-90421044D02*
X199588928Y-90392217D01*
X199601991Y-90452884D02*
X199594915Y-90421044D01*
X199610034Y-90487041D02*
X199601991Y-90452884D01*
X199610034Y-90487041D02*
X199610034Y-90487041D01*
X199618103Y-90521520D02*
X199610034Y-90487041D01*
X199625263Y-90554281D02*
X199618103Y-90521520D01*
X199631383Y-90584566D02*
X199625263Y-90554281D01*
X199636332Y-90611614D02*
X199631383Y-90584566D01*
X199639981Y-90634666D02*
X199636332Y-90611614D01*
X199641277Y-90644456D02*
X199639981Y-90634666D01*
X199642198Y-90652963D02*
X199641277Y-90644456D01*
X199642729Y-90660090D02*
X199642198Y-90652963D01*
X199642853Y-90665743D02*
X199642729Y-90660090D01*
X199642554Y-90669828D02*
X199642853Y-90665743D01*
X199642241Y-90671253D02*
X199642554Y-90669828D01*
X199641816Y-90672249D02*
X199642241Y-90671253D01*
X199641816Y-90672249D02*
X199641816Y-90672249D01*
X199640231Y-90674678D02*
X199641816Y-90672249D01*
X199638620Y-90676885D02*
X199640231Y-90674678D01*
X199636986Y-90678870D02*
X199638620Y-90676885D01*
X199635333Y-90680637D02*
X199636986Y-90678870D01*
X199633663Y-90682185D02*
X199635333Y-90680637D01*
X199631979Y-90683517D02*
X199633663Y-90682185D01*
X199630285Y-90684635D02*
X199631979Y-90683517D01*
X199628584Y-90685540D02*
X199630285Y-90684635D01*
X199626880Y-90686234D02*
X199628584Y-90685540D01*
X199625174Y-90686718D02*
X199626880Y-90686234D01*
X199623472Y-90686994D02*
X199625174Y-90686718D01*
X199621774Y-90687064D02*
X199623472Y-90686994D01*
X199620086Y-90686929D02*
X199621774Y-90687064D01*
X199618410Y-90686591D02*
X199620086Y-90686929D01*
X199616750Y-90686052D02*
X199618410Y-90686591D01*
X199615107Y-90685313D02*
X199616750Y-90686052D01*
X199613487Y-90684376D02*
X199615107Y-90685313D01*
X199611891Y-90683243D02*
X199613487Y-90684376D01*
X199610323Y-90681915D02*
X199611891Y-90683243D01*
X199608787Y-90680393D02*
X199610323Y-90681915D01*
X199607285Y-90678680D02*
X199608787Y-90680393D01*
X199605821Y-90676777D02*
X199607285Y-90678680D01*
X199604397Y-90674686D02*
X199605821Y-90676777D01*
X199603018Y-90672408D02*
X199604397Y-90674686D01*
X199601685Y-90669945D02*
X199603018Y-90672408D01*
X199600403Y-90667299D02*
X199601685Y-90669945D01*
X199599175Y-90664471D02*
X199600403Y-90667299D01*
X199598004Y-90661463D02*
X199599175Y-90664471D01*
X199596892Y-90658276D02*
X199598004Y-90661463D01*
X199595843Y-90654913D02*
X199596892Y-90658276D01*
X199594861Y-90651375D02*
X199595843Y-90654913D01*
X199593948Y-90647663D02*
X199594861Y-90651375D01*
X199593948Y-90647663D02*
X199593948Y-90647663D01*
X199537395Y-90400725D02*
X199593948Y-90647663D01*
X201097789Y-91797097D02*
X201098590Y-91798816D01*
X201095440Y-91793985D02*
X201097789Y-91797097D01*
X201086412Y-91783885D02*
X201095440Y-91793985D01*
X201072138Y-91769137D02*
X201086412Y-91783885D01*
X201053252Y-91750363D02*
X201072138Y-91769137D01*
X201030387Y-91728183D02*
X201053252Y-91750363D01*
X201004176Y-91703218D02*
X201030387Y-91728183D01*
X200944247Y-91647417D02*
X201004176Y-91703218D01*
X200944247Y-91647417D02*
X200944247Y-91647417D01*
X200789913Y-91505677D02*
X200944247Y-91647417D01*
X200789913Y-91505677D02*
X200789913Y-91505677D01*
X199987507Y-91969124D02*
X200789913Y-91505677D01*
X199987507Y-91969124D02*
X199987507Y-91969124D01*
X199675657Y-92150155D02*
X199987507Y-91969124D01*
X199419715Y-92300470D02*
X199675657Y-92150155D01*
X199246132Y-92404409D02*
X199419715Y-92300470D01*
X199198491Y-92434094D02*
X199246132Y-92404409D01*
X199185905Y-92442510D02*
X199198491Y-92434094D01*
X199181360Y-92446314D02*
X199185905Y-92442510D01*
X199181360Y-92446314D02*
X199181360Y-92446314D01*
X199250579Y-92491526D02*
X199181360Y-92446314D01*
X199435747Y-92602380D02*
X199250579Y-92491526D01*
X200002377Y-92933295D02*
X199435747Y-92602380D01*
X200578136Y-93263613D02*
X200002377Y-92933295D01*
X200774717Y-93373722D02*
X200578136Y-93263613D01*
X200859912Y-93417889D02*
X200774717Y-93373722D01*
X200859912Y-93417889D02*
X200859912Y-93417889D01*
X200936394Y-93380056D02*
X200859912Y-93417889D01*
X201124899Y-93276805D02*
X200936394Y-93380056D01*
X201690352Y-92958104D02*
X201124899Y-93276805D01*
X202261017Y-92629902D02*
X201690352Y-92958104D01*
X202456037Y-92514774D02*
X202261017Y-92629902D01*
X202541641Y-92460315D02*
X202456037Y-92514774D01*
X202541641Y-92460315D02*
X202541641Y-92460315D01*
X202537916Y-92452835D02*
X202541641Y-92460315D01*
X202520033Y-92437523D02*
X202537916Y-92452835D01*
X202445541Y-92385662D02*
X202520033Y-92437523D01*
X202325652Y-92309244D02*
X202445541Y-92385662D01*
X202167856Y-92212781D02*
X202325652Y-92309244D01*
X201768492Y-91977761D02*
X202167856Y-92212781D01*
X201307357Y-91716694D02*
X201768492Y-91977761D01*
X201307357Y-91716694D02*
X201307357Y-91716694D01*
X201306724Y-91716456D02*
X201307357Y-91716694D01*
X201306036Y-91716409D02*
X201306724Y-91716456D01*
X201305296Y-91716548D02*
X201306036Y-91716409D01*
X201304506Y-91716870D02*
X201305296Y-91716548D01*
X201302785Y-91718045D02*
X201304506Y-91716870D01*
X201300892Y-91719898D02*
X201302785Y-91718045D01*
X201298846Y-91722397D02*
X201300892Y-91719898D01*
X201296663Y-91725507D02*
X201298846Y-91722397D01*
X201294363Y-91729194D02*
X201296663Y-91725507D01*
X201291965Y-91733426D02*
X201294363Y-91729194D01*
X201289486Y-91738167D02*
X201291965Y-91733426D01*
X201286945Y-91743384D02*
X201289486Y-91738167D01*
X201284361Y-91749043D02*
X201286945Y-91743384D01*
X201281751Y-91755111D02*
X201284361Y-91749043D01*
X201276529Y-91768335D02*
X201281751Y-91755111D01*
X201271426Y-91782786D02*
X201276529Y-91768335D01*
X201271426Y-91782786D02*
X201271426Y-91782786D01*
X201247229Y-91855388D02*
X201271426Y-91782786D01*
X201247229Y-91855388D02*
X201247229Y-91855388D01*
X200701504Y-92134700D02*
X201247229Y-91855388D01*
X200701504Y-92134700D02*
X200701504Y-92134700D01*
X200592410Y-92190986D02*
X200701504Y-92134700D01*
X200491661Y-92243834D02*
X200592410Y-92190986D01*
X200401390Y-92292063D02*
X200491661Y-92243834D01*
X200323727Y-92334493D02*
X200401390Y-92292063D01*
X200260805Y-92369942D02*
X200323727Y-92334493D01*
X200214755Y-92397229D02*
X200260805Y-92369942D01*
X200198724Y-92407444D02*
X200214755Y-92397229D01*
X200187709Y-92415175D02*
X200198724Y-92407444D01*
X200181979Y-92420275D02*
X200187709Y-92415175D01*
X200181179Y-92421793D02*
X200181979Y-92420275D01*
X200181800Y-92422598D02*
X200181179Y-92421793D01*
X200181800Y-92422598D02*
X200181800Y-92422598D01*
X200190177Y-92424556D02*
X200181800Y-92422598D01*
X200204079Y-92426842D02*
X200190177Y-92424556D01*
X200222766Y-92429372D02*
X200204079Y-92426842D01*
X200245499Y-92432063D02*
X200222766Y-92429372D01*
X200300144Y-92437598D02*
X200245499Y-92432063D01*
X200362100Y-92442785D02*
X200300144Y-92437598D01*
X200362100Y-92442785D02*
X200362100Y-92442785D01*
X200386678Y-92444801D02*
X200362100Y-92442785D01*
X200409400Y-92447005D02*
X200386678Y-92444801D01*
X200430259Y-92449397D02*
X200409400Y-92447005D01*
X200449252Y-92451974D02*
X200430259Y-92449397D01*
X200458047Y-92453332D02*
X200449252Y-92451974D01*
X200466373Y-92454736D02*
X200458047Y-92453332D01*
X200474230Y-92456186D02*
X200466373Y-92454736D01*
X200481617Y-92457680D02*
X200474230Y-92456186D01*
X200488534Y-92459221D02*
X200481617Y-92457680D01*
X200494979Y-92460806D02*
X200488534Y-92459221D01*
X200500953Y-92462436D02*
X200494979Y-92460806D01*
X200506455Y-92464111D02*
X200500953Y-92462436D01*
X200511483Y-92465830D02*
X200506455Y-92464111D01*
X200516038Y-92467593D02*
X200511483Y-92465830D01*
X200520119Y-92469401D02*
X200516038Y-92467593D01*
X200523725Y-92471253D02*
X200520119Y-92469401D01*
X200526856Y-92473148D02*
X200523725Y-92471253D01*
X200529510Y-92475086D02*
X200526856Y-92473148D01*
X200531688Y-92477068D02*
X200529510Y-92475086D01*
X200533388Y-92479093D02*
X200531688Y-92477068D01*
X200534611Y-92481161D02*
X200533388Y-92479093D01*
X200535043Y-92482211D02*
X200534611Y-92481161D01*
X200535355Y-92483271D02*
X200535043Y-92482211D01*
X200535547Y-92484343D02*
X200535355Y-92483271D01*
X200535619Y-92485424D02*
X200535547Y-92484343D01*
X200535572Y-92486517D02*
X200535619Y-92485424D01*
X200535404Y-92487620D02*
X200535572Y-92486517D01*
X200534708Y-92489857D02*
X200535404Y-92487620D01*
X200533531Y-92492136D02*
X200534708Y-92489857D01*
X200531873Y-92494457D02*
X200533531Y-92492136D01*
X200529732Y-92496820D02*
X200531873Y-92494457D01*
X200529732Y-92496820D02*
X200529732Y-92496820D01*
X200521913Y-92498424D02*
X200529732Y-92496820D01*
X200503895Y-92498844D02*
X200521913Y-92498424D01*
X200443003Y-92496625D02*
X200503895Y-92498844D01*
X200358547Y-92491155D02*
X200443003Y-92496625D01*
X200262016Y-92483427D02*
X200358547Y-92491155D01*
X200164901Y-92474432D02*
X200262016Y-92483427D01*
X200078691Y-92465162D02*
X200164901Y-92474432D01*
X200014878Y-92456610D02*
X200078691Y-92465162D01*
X199994961Y-92452913D02*
X200014878Y-92456610D01*
X199984951Y-92449768D02*
X199994961Y-92452913D01*
X199984951Y-92449768D02*
X199984951Y-92449768D01*
X199983888Y-92447387D02*
X199984951Y-92449768D01*
X199984304Y-92442612D02*
X199983888Y-92447387D01*
X199989224Y-92426507D02*
X199984304Y-92442612D01*
X199999015Y-92402711D02*
X199989224Y-92426507D01*
X200012981Y-92372481D02*
X199999015Y-92402711D01*
X200050654Y-92297748D02*
X200012981Y-92372481D01*
X200096677Y-92212367D02*
X200050654Y-92297748D01*
X200145482Y-92126398D02*
X200096677Y-92212367D01*
X200191504Y-92049900D02*
X200145482Y-92126398D01*
X200211731Y-92018345D02*
X200191504Y-92049900D01*
X200229175Y-91992930D02*
X200211731Y-92018345D01*
X200243140Y-91974913D02*
X200229175Y-91992930D01*
X200252929Y-91965550D02*
X200243140Y-91974913D01*
X200252929Y-91965550D02*
X200252929Y-91965550D01*
X200260892Y-91961338D02*
X200252929Y-91965550D01*
X200264271Y-91960126D02*
X200260892Y-91961338D01*
X200267252Y-91959497D02*
X200264271Y-91960126D01*
X200269837Y-91959444D02*
X200267252Y-91959497D01*
X200272029Y-91959956D02*
X200269837Y-91959444D01*
X200273831Y-91961026D02*
X200272029Y-91959956D01*
X200275246Y-91962644D02*
X200273831Y-91961026D01*
X200276276Y-91964801D02*
X200275246Y-91962644D01*
X200276923Y-91967489D02*
X200276276Y-91964801D01*
X200277082Y-91974420D02*
X200276923Y-91967489D01*
X200275745Y-91983366D02*
X200277082Y-91974420D01*
X200272931Y-91994256D02*
X200275745Y-91983366D01*
X200268664Y-92007018D02*
X200272931Y-91994256D01*
X200262964Y-92021582D02*
X200268664Y-92007018D01*
X200255852Y-92037875D02*
X200262964Y-92021582D01*
X200247350Y-92055828D02*
X200255852Y-92037875D01*
X200237479Y-92075368D02*
X200247350Y-92055828D01*
X200226261Y-92096425D02*
X200237479Y-92075368D01*
X200213716Y-92118927D02*
X200226261Y-92096425D01*
X200199867Y-92142803D02*
X200213716Y-92118927D01*
X200199867Y-92142803D02*
X200199867Y-92142803D01*
X200181978Y-92173288D02*
X200199867Y-92142803D01*
X200165289Y-92202109D02*
X200181978Y-92173288D01*
X200150165Y-92228607D02*
X200165289Y-92202109D01*
X200136971Y-92252126D02*
X200150165Y-92228607D01*
X200126073Y-92272006D02*
X200136971Y-92252126D01*
X200117837Y-92287591D02*
X200126073Y-92272006D01*
X200112627Y-92298221D02*
X200117837Y-92287591D01*
X200111271Y-92301473D02*
X200112627Y-92298221D01*
X200110809Y-92303240D02*
X200111271Y-92301473D01*
X200110809Y-92303240D02*
X200110809Y-92303240D01*
X200120890Y-92300033D02*
X200110809Y-92303240D01*
X200149780Y-92287090D02*
X200120890Y-92300033D01*
X200255890Y-92235975D02*
X200149780Y-92287090D01*
X200412933Y-92157852D02*
X200255890Y-92235975D01*
X200604704Y-92060682D02*
X200412933Y-92157852D01*
X200604704Y-92060682D02*
X200604704Y-92060682D01*
X200796470Y-91961989D02*
X200604704Y-92060682D01*
X200953511Y-91879718D02*
X200796470Y-91961989D01*
X201013944Y-91847427D02*
X200953511Y-91879718D01*
X201059619Y-91822463D02*
X201013944Y-91847427D01*
X201088510Y-91805902D02*
X201059619Y-91822463D01*
X201096028Y-91801107D02*
X201088510Y-91805902D01*
X201098590Y-91798816D02*
X201096028Y-91801107D01*
X201089017Y-91586061D02*
X201108675Y-91597429D01*
X201071792Y-91576433D02*
X201089017Y-91586061D01*
X201056990Y-91568554D02*
X201071792Y-91576433D01*
X201044603Y-91562437D02*
X201056990Y-91568554D01*
X201034622Y-91558092D02*
X201044603Y-91562437D01*
X201030530Y-91556588D02*
X201034622Y-91558092D01*
X201027037Y-91555530D02*
X201030530Y-91556588D01*
X201024140Y-91554921D02*
X201027037Y-91555530D01*
X201021838Y-91554762D02*
X201024140Y-91554921D01*
X201020131Y-91555055D02*
X201021838Y-91554762D01*
X201019018Y-91555799D02*
X201020131Y-91555055D01*
X201018496Y-91556998D02*
X201019018Y-91555799D01*
X201018566Y-91558652D02*
X201018496Y-91556998D01*
X201019225Y-91560763D02*
X201018566Y-91558652D01*
X201020473Y-91563331D02*
X201019225Y-91560763D01*
X201022309Y-91566359D02*
X201020473Y-91563331D01*
X201024731Y-91569848D02*
X201022309Y-91566359D01*
X201031329Y-91578214D02*
X201024731Y-91569848D01*
X201040259Y-91588438D02*
X201031329Y-91578214D01*
X201051512Y-91600533D02*
X201040259Y-91588438D01*
X201065079Y-91614510D02*
X201051512Y-91600533D01*
X201080949Y-91630378D02*
X201065079Y-91614510D01*
X201080949Y-91630378D02*
X201080949Y-91630378D01*
X201096759Y-91645882D02*
X201080949Y-91630378D01*
X201110970Y-91659543D02*
X201096759Y-91645882D01*
X201123663Y-91671395D02*
X201110970Y-91659543D01*
X201134917Y-91681473D02*
X201123663Y-91671395D01*
X201140029Y-91685858D02*
X201134917Y-91681473D01*
X201144811Y-91689813D02*
X201140029Y-91685858D01*
X201149274Y-91693342D02*
X201144811Y-91689813D01*
X201153427Y-91696449D02*
X201149274Y-91693342D01*
X201157280Y-91699139D02*
X201153427Y-91696449D01*
X201160843Y-91701416D02*
X201157280Y-91699139D01*
X201164126Y-91703285D02*
X201160843Y-91701416D01*
X201167139Y-91704750D02*
X201164126Y-91703285D01*
X201169893Y-91705815D02*
X201167139Y-91704750D01*
X201172396Y-91706485D02*
X201169893Y-91705815D01*
X201174659Y-91706764D02*
X201172396Y-91706485D01*
X201175704Y-91706758D02*
X201174659Y-91706764D01*
X201176693Y-91706656D02*
X201175704Y-91706758D01*
X201177626Y-91706459D02*
X201176693Y-91706656D01*
X201178506Y-91706167D02*
X201177626Y-91706459D01*
X201179334Y-91705780D02*
X201178506Y-91706167D01*
X201180110Y-91705299D02*
X201179334Y-91705780D01*
X201180836Y-91704725D02*
X201180110Y-91705299D01*
X201181513Y-91704058D02*
X201180836Y-91704725D01*
X201182726Y-91702448D02*
X201181513Y-91704058D01*
X201183759Y-91700474D02*
X201182726Y-91702448D01*
X201184622Y-91698139D02*
X201183759Y-91700474D01*
X201185325Y-91695448D02*
X201184622Y-91698139D01*
X201185878Y-91692406D02*
X201185325Y-91695448D01*
X201186290Y-91689017D02*
X201185878Y-91692406D01*
X201186572Y-91685285D02*
X201186290Y-91689017D01*
X201186735Y-91681214D02*
X201186572Y-91685285D01*
X201186786Y-91676810D02*
X201186735Y-91681214D01*
X201186786Y-91676810D02*
X201186786Y-91676810D01*
X201186701Y-91674808D02*
X201186786Y-91676810D01*
X201186448Y-91672758D02*
X201186701Y-91674808D01*
X201185441Y-91668521D02*
X201186448Y-91672758D01*
X201183780Y-91664113D02*
X201185441Y-91668521D01*
X201181477Y-91659548D02*
X201183780Y-91664113D01*
X201178546Y-91654839D02*
X201181477Y-91659548D01*
X201175000Y-91650000D02*
X201178546Y-91654839D01*
X201170853Y-91645044D02*
X201175000Y-91650000D01*
X201166118Y-91639985D02*
X201170853Y-91645044D01*
X201160809Y-91634836D02*
X201166118Y-91639985D01*
X201154938Y-91629611D02*
X201160809Y-91634836D01*
X201148519Y-91624324D02*
X201154938Y-91629611D01*
X201141566Y-91618989D02*
X201148519Y-91624324D01*
X201134091Y-91613618D02*
X201141566Y-91618989D01*
X201126109Y-91608225D02*
X201134091Y-91613618D01*
X201117632Y-91602825D02*
X201126109Y-91608225D01*
X201108675Y-91597429D02*
X201117632Y-91602825D01*
D11*
X187563095Y-90727380D02*
X188182142Y-90727380D01*
X187848809Y-91108333D01*
X187991666Y-91108333D01*
X188086904Y-91155952D01*
X188134523Y-91203571D01*
X188182142Y-91298809D01*
X188182142Y-91536904D01*
X188134523Y-91632142D01*
X188086904Y-91679761D01*
X187991666Y-91727380D01*
X187705952Y-91727380D01*
X187610714Y-91679761D01*
X187563095Y-91632142D01*
X188610714Y-91727380D02*
X188610714Y-90727380D01*
X188848809Y-90727380D01*
X188991666Y-90775000D01*
X189086904Y-90870238D01*
X189134523Y-90965476D01*
X189182142Y-91155952D01*
X189182142Y-91298809D01*
X189134523Y-91489285D01*
X189086904Y-91584523D01*
X188991666Y-91679761D01*
X188848809Y-91727380D01*
X188610714Y-91727380D01*
X189610714Y-91346428D02*
X190372619Y-91346428D01*
X190848809Y-91727380D02*
X190848809Y-90727380D01*
X191182142Y-91441666D01*
X191515476Y-90727380D01*
X191515476Y-91727380D01*
X192134523Y-91727380D02*
X192039285Y-91679761D01*
X191991666Y-91632142D01*
X191944047Y-91536904D01*
X191944047Y-91251190D01*
X191991666Y-91155952D01*
X192039285Y-91108333D01*
X192134523Y-91060714D01*
X192277380Y-91060714D01*
X192372619Y-91108333D01*
X192420238Y-91155952D01*
X192467857Y-91251190D01*
X192467857Y-91536904D01*
X192420238Y-91632142D01*
X192372619Y-91679761D01*
X192277380Y-91727380D01*
X192134523Y-91727380D01*
X193325000Y-91727380D02*
X193325000Y-90727380D01*
X193325000Y-91679761D02*
X193229761Y-91727380D01*
X193039285Y-91727380D01*
X192944047Y-91679761D01*
X192896428Y-91632142D01*
X192848809Y-91536904D01*
X192848809Y-91251190D01*
X192896428Y-91155952D01*
X192944047Y-91108333D01*
X193039285Y-91060714D01*
X193229761Y-91060714D01*
X193325000Y-91108333D01*
X194182142Y-91679761D02*
X194086904Y-91727380D01*
X193896428Y-91727380D01*
X193801190Y-91679761D01*
X193753571Y-91584523D01*
X193753571Y-91203571D01*
X193801190Y-91108333D01*
X193896428Y-91060714D01*
X194086904Y-91060714D01*
X194182142Y-91108333D01*
X194229761Y-91203571D01*
X194229761Y-91298809D01*
X193753571Y-91394047D01*
X194801190Y-91727380D02*
X194705952Y-91679761D01*
X194658333Y-91584523D01*
X194658333Y-90727380D01*
X195182142Y-91727380D02*
X195182142Y-91060714D01*
X195182142Y-90727380D02*
X195134523Y-90775000D01*
X195182142Y-90822619D01*
X195229761Y-90775000D01*
X195182142Y-90727380D01*
X195182142Y-90822619D01*
X195658333Y-91060714D02*
X195658333Y-91727380D01*
X195658333Y-91155952D02*
X195705952Y-91108333D01*
X195801190Y-91060714D01*
X195944047Y-91060714D01*
X196039285Y-91108333D01*
X196086904Y-91203571D01*
X196086904Y-91727380D01*
X196991666Y-91060714D02*
X196991666Y-91870238D01*
X196944047Y-91965476D01*
X196896428Y-92013095D01*
X196801190Y-92060714D01*
X196658333Y-92060714D01*
X196563095Y-92013095D01*
X196991666Y-91679761D02*
X196896428Y-91727380D01*
X196705952Y-91727380D01*
X196610714Y-91679761D01*
X196563095Y-91632142D01*
X196515476Y-91536904D01*
X196515476Y-91251190D01*
X196563095Y-91155952D01*
X196610714Y-91108333D01*
X196705952Y-91060714D01*
X196896428Y-91060714D01*
X196991666Y-91108333D01*
%TO.C,A1*%
X141398714Y-85256666D02*
X141874904Y-85256666D01*
X141303476Y-85542380D02*
X141636809Y-84542380D01*
X141970142Y-85542380D01*
X142827285Y-85542380D02*
X142255857Y-85542380D01*
X142541571Y-85542380D02*
X142541571Y-84542380D01*
X142446333Y-84685238D01*
X142351095Y-84780476D01*
X142255857Y-84828095D01*
%TO.C,A3*%
X184316666Y-125174285D02*
X184316666Y-124698095D01*
X184602380Y-125269523D02*
X183602380Y-124936190D01*
X184602380Y-124602857D01*
X183602380Y-124364761D02*
X183602380Y-123745714D01*
X183983333Y-124079047D01*
X183983333Y-123936190D01*
X184030952Y-123840952D01*
X184078571Y-123793333D01*
X184173809Y-123745714D01*
X184411904Y-123745714D01*
X184507142Y-123793333D01*
X184554761Y-123840952D01*
X184602380Y-123936190D01*
X184602380Y-124221904D01*
X184554761Y-124317142D01*
X184507142Y-124364761D01*
%TO.C,J3*%
X211560666Y-130640406D02*
X212564125Y-130640406D01*
X212764817Y-130707303D01*
X212898611Y-130841097D01*
X212965509Y-131041789D01*
X212965509Y-131175584D01*
X211560666Y-130105227D02*
X211560666Y-129235563D01*
X212095844Y-129703844D01*
X212095844Y-129503152D01*
X212162741Y-129369357D01*
X212229639Y-129302460D01*
X212363433Y-129235563D01*
X212697920Y-129235563D01*
X212831714Y-129302460D01*
X212898611Y-129369357D01*
X212965509Y-129503152D01*
X212965509Y-129904535D01*
X212898611Y-130038330D01*
X212831714Y-130105227D01*
%TO.C,A2*%
X184316666Y-102314285D02*
X184316666Y-101838095D01*
X184602380Y-102409523D02*
X183602380Y-102076190D01*
X184602380Y-101742857D01*
X183697619Y-101457142D02*
X183650000Y-101409523D01*
X183602380Y-101314285D01*
X183602380Y-101076190D01*
X183650000Y-100980952D01*
X183697619Y-100933333D01*
X183792857Y-100885714D01*
X183888095Y-100885714D01*
X184030952Y-100933333D01*
X184602380Y-101504761D01*
X184602380Y-100885714D01*
%TO.C,J2*%
X211560666Y-107780406D02*
X212564125Y-107780406D01*
X212764817Y-107847303D01*
X212898611Y-107981097D01*
X212965509Y-108181789D01*
X212965509Y-108315584D01*
X211694460Y-107178330D02*
X211627563Y-107111433D01*
X211560666Y-106977638D01*
X211560666Y-106643152D01*
X211627563Y-106509357D01*
X211694460Y-106442460D01*
X211828255Y-106375563D01*
X211962049Y-106375563D01*
X212162741Y-106442460D01*
X212965509Y-107245227D01*
X212965509Y-106375563D01*
%TO.C,J1*%
X118916362Y-73201880D02*
X118916362Y-73916818D01*
X118868699Y-74059806D01*
X118773374Y-74155131D01*
X118630387Y-74202793D01*
X118535062Y-74202793D01*
X119917275Y-74202793D02*
X119345325Y-74202793D01*
X119631300Y-74202793D02*
X119631300Y-73201880D01*
X119535975Y-73344868D01*
X119440650Y-73440193D01*
X119345325Y-73487856D01*
%TO.C,REF\u002A\u002A*%
X117916666Y-72702380D02*
X117583333Y-72226190D01*
X117345238Y-72702380D02*
X117345238Y-71702380D01*
X117726190Y-71702380D01*
X117821428Y-71750000D01*
X117869047Y-71797619D01*
X117916666Y-71892857D01*
X117916666Y-72035714D01*
X117869047Y-72130952D01*
X117821428Y-72178571D01*
X117726190Y-72226190D01*
X117345238Y-72226190D01*
X118345238Y-72178571D02*
X118678571Y-72178571D01*
X118821428Y-72702380D02*
X118345238Y-72702380D01*
X118345238Y-71702380D01*
X118821428Y-71702380D01*
X119583333Y-72178571D02*
X119250000Y-72178571D01*
X119250000Y-72702380D02*
X119250000Y-71702380D01*
X119726190Y-71702380D01*
X120250000Y-71702380D02*
X120250000Y-71940476D01*
X120011904Y-71845238D02*
X120250000Y-71940476D01*
X120488095Y-71845238D01*
X120107142Y-72130952D02*
X120250000Y-71940476D01*
X120392857Y-72130952D01*
X121011904Y-71702380D02*
X121011904Y-71940476D01*
X120773809Y-71845238D02*
X121011904Y-71940476D01*
X121250000Y-71845238D01*
X120869047Y-72130952D02*
X121011904Y-71940476D01*
X121154761Y-72130952D01*
X117916666Y-141652380D02*
X117583333Y-141176190D01*
X117345238Y-141652380D02*
X117345238Y-140652380D01*
X117726190Y-140652380D01*
X117821428Y-140700000D01*
X117869047Y-140747619D01*
X117916666Y-140842857D01*
X117916666Y-140985714D01*
X117869047Y-141080952D01*
X117821428Y-141128571D01*
X117726190Y-141176190D01*
X117345238Y-141176190D01*
X118345238Y-141128571D02*
X118678571Y-141128571D01*
X118821428Y-141652380D02*
X118345238Y-141652380D01*
X118345238Y-140652380D01*
X118821428Y-140652380D01*
X119583333Y-141128571D02*
X119250000Y-141128571D01*
X119250000Y-141652380D02*
X119250000Y-140652380D01*
X119726190Y-140652380D01*
X120250000Y-140652380D02*
X120250000Y-140890476D01*
X120011904Y-140795238D02*
X120250000Y-140890476D01*
X120488095Y-140795238D01*
X120107142Y-141080952D02*
X120250000Y-140890476D01*
X120392857Y-141080952D01*
X121011904Y-140652380D02*
X121011904Y-140890476D01*
X120773809Y-140795238D02*
X121011904Y-140890476D01*
X121250000Y-140795238D01*
X120869047Y-141080952D02*
X121011904Y-140890476D01*
X121154761Y-141080952D01*
X217166666Y-137652380D02*
X216833333Y-137176190D01*
X216595238Y-137652380D02*
X216595238Y-136652380D01*
X216976190Y-136652380D01*
X217071428Y-136700000D01*
X217119047Y-136747619D01*
X217166666Y-136842857D01*
X217166666Y-136985714D01*
X217119047Y-137080952D01*
X217071428Y-137128571D01*
X216976190Y-137176190D01*
X216595238Y-137176190D01*
X217595238Y-137128571D02*
X217928571Y-137128571D01*
X218071428Y-137652380D02*
X217595238Y-137652380D01*
X217595238Y-136652380D01*
X218071428Y-136652380D01*
X218833333Y-137128571D02*
X218500000Y-137128571D01*
X218500000Y-137652380D02*
X218500000Y-136652380D01*
X218976190Y-136652380D01*
X219500000Y-136652380D02*
X219500000Y-136890476D01*
X219261904Y-136795238D02*
X219500000Y-136890476D01*
X219738095Y-136795238D01*
X219357142Y-137080952D02*
X219500000Y-136890476D01*
X219642857Y-137080952D01*
X220261904Y-136652380D02*
X220261904Y-136890476D01*
X220023809Y-136795238D02*
X220261904Y-136890476D01*
X220500000Y-136795238D01*
X220119047Y-137080952D02*
X220261904Y-136890476D01*
X220404761Y-137080952D01*
X217166666Y-89452380D02*
X216833333Y-88976190D01*
X216595238Y-89452380D02*
X216595238Y-88452380D01*
X216976190Y-88452380D01*
X217071428Y-88500000D01*
X217119047Y-88547619D01*
X217166666Y-88642857D01*
X217166666Y-88785714D01*
X217119047Y-88880952D01*
X217071428Y-88928571D01*
X216976190Y-88976190D01*
X216595238Y-88976190D01*
X217595238Y-88928571D02*
X217928571Y-88928571D01*
X218071428Y-89452380D02*
X217595238Y-89452380D01*
X217595238Y-88452380D01*
X218071428Y-88452380D01*
X218833333Y-88928571D02*
X218500000Y-88928571D01*
X218500000Y-89452380D02*
X218500000Y-88452380D01*
X218976190Y-88452380D01*
X219500000Y-88452380D02*
X219500000Y-88690476D01*
X219261904Y-88595238D02*
X219500000Y-88690476D01*
X219738095Y-88595238D01*
X219357142Y-88880952D02*
X219500000Y-88690476D01*
X219642857Y-88880952D01*
X220261904Y-88452380D02*
X220261904Y-88690476D01*
X220023809Y-88595238D02*
X220261904Y-88690476D01*
X220500000Y-88595238D01*
X220119047Y-88880952D02*
X220261904Y-88690476D01*
X220404761Y-88880952D01*
D12*
%TO.C,A1*%
X112773000Y-118620000D02*
X106423000Y-118620000D01*
X112773000Y-89410000D02*
X110873000Y-89410000D01*
X177423000Y-139830000D02*
X179073000Y-138180000D01*
X181613000Y-124210000D02*
X181613000Y-91440000D01*
X179073000Y-86230000D02*
X112773000Y-86230000D01*
X181613000Y-91440000D02*
X179073000Y-88900000D01*
X179073000Y-126750000D02*
X181613000Y-124210000D01*
X112773000Y-139830000D02*
X177423000Y-139830000D01*
X110873000Y-98550000D02*
X112773000Y-98550000D01*
X112773000Y-130300000D02*
X112773000Y-139830000D01*
X106423000Y-118620000D02*
X106423000Y-130300000D01*
X110873000Y-89410000D02*
X110873000Y-98550000D01*
X106423000Y-130300000D02*
X112773000Y-130300000D01*
X112773000Y-86230000D02*
X112773000Y-89410000D01*
X112773000Y-98550000D02*
X112773000Y-118620000D01*
X179073000Y-88900000D02*
X179073000Y-86230000D01*
X179073000Y-138180000D02*
X179073000Y-126750000D01*
%TO.C,A3*%
X185290000Y-116710000D02*
X185290000Y-129540000D01*
X185290000Y-132210000D02*
X186690000Y-132210000D01*
X187960000Y-129540000D02*
X187960000Y-132210000D01*
X187960000Y-129540000D02*
X205870000Y-129540000D01*
X185290000Y-129540000D02*
X187960000Y-129540000D01*
X205870000Y-132210000D02*
X205870000Y-116710000D01*
X185290000Y-119380000D02*
X205870000Y-119380000D01*
X185290000Y-130810000D02*
X185290000Y-132210000D01*
X187960000Y-132210000D02*
X205870000Y-132210000D01*
X205870000Y-116710000D02*
X185290000Y-116710000D01*
D13*
%TO.C,J3*%
X213940000Y-114300000D02*
X213940000Y-134620000D01*
X222940000Y-114300000D02*
X213940000Y-114300000D01*
X213940000Y-134620000D02*
X222940000Y-134620000D01*
X222940000Y-134620000D02*
X222940000Y-114300000D01*
D14*
X218640000Y-135382000D02*
G75*
G03*
X218640000Y-135382000I-200000J0D01*
G01*
D12*
%TO.C,A2*%
X205870000Y-109350000D02*
X205870000Y-93850000D01*
X185290000Y-106680000D02*
X187960000Y-106680000D01*
X185290000Y-107950000D02*
X185290000Y-109350000D01*
X187960000Y-106680000D02*
X205870000Y-106680000D01*
X185290000Y-93850000D02*
X185290000Y-106680000D01*
X205870000Y-93850000D02*
X185290000Y-93850000D01*
X187960000Y-106680000D02*
X187960000Y-109350000D01*
X185290000Y-109350000D02*
X186690000Y-109350000D01*
X187960000Y-109350000D02*
X205870000Y-109350000D01*
X185290000Y-96520000D02*
X205870000Y-96520000D01*
D13*
%TO.C,J2*%
X213940000Y-111760000D02*
X222940000Y-111760000D01*
X213940000Y-91440000D02*
X213940000Y-111760000D01*
X222940000Y-91440000D02*
X213940000Y-91440000D01*
X222940000Y-111760000D02*
X222940000Y-91440000D01*
D14*
X218640000Y-112522000D02*
G75*
G03*
X218640000Y-112522000I-200000J0D01*
G01*
D13*
%TO.C,J1*%
X112484000Y-83875000D02*
X112484000Y-82025000D01*
X112484000Y-74875000D02*
X126984000Y-74875000D01*
X126984000Y-74875000D02*
X126984000Y-83875000D01*
X112484000Y-76825000D02*
X112484000Y-74875000D01*
X126984000Y-83875000D02*
X112484000Y-83875000D01*
D14*
X111484000Y-79375000D02*
G75*
G03*
X111484000Y-79375000I-200000J0D01*
G01*
%TD*%
M02*
