M48
; DRILL file {KiCad (5.99.0-11497-g0fb864d596)} date Monday, January 24, 2022 at 09:34:34 PM
; FORMAT={-:-/ absolute / inch / decimal}
; #@! TF.CreationDate,2022-01-24T21:34:34-05:00
; #@! TF.GenerationSoftware,Kicad,Pcbnew,(5.99.0-11497-g0fb864d596)
; #@! TF.FileFunction,Plated,1,2,PTH
FMAT,2
INCH
; #@! TA.AperFunction,Plated,PTH,ComponentDrill
T1C0.0315
; #@! TA.AperFunction,Plated,PTH,ComponentDrill
T2C0.0394
; #@! TA.AperFunction,Plated,PTH,ComponentDrill
T3C0.0551
; #@! TA.AperFunction,Plated,PTH,ComponentDrill
T4C0.1260
%
G90
G05
T1
X7.35Y-3.75
X7.35Y-4.25
X7.35Y-4.65
X7.35Y-5.15
X7.45Y-3.75
X7.45Y-4.25
X7.45Y-4.65
X7.45Y-5.15
X7.55Y-3.75
X7.55Y-4.25
X7.55Y-4.65
X7.55Y-5.15
X7.65Y-3.75
X7.65Y-4.25
X7.65Y-4.65
X7.65Y-5.15
X7.75Y-3.75
X7.75Y-4.25
X7.75Y-4.65
X7.75Y-5.15
X7.85Y-3.75
X7.85Y-4.25
X7.85Y-4.65
X7.85Y-5.15
X7.95Y-3.75
X7.95Y-4.25
X7.95Y-4.65
X7.95Y-5.15
X8.05Y-3.75
X8.05Y-4.25
X8.05Y-4.65
X8.05Y-5.15
T2
X5.1852Y-5.4
X5.2852Y-5.4
X5.3852Y-5.4
X5.4852Y-5.4
X5.545Y-3.5
X5.5852Y-5.4
X5.645Y-3.5
X5.6852Y-5.4
X5.745Y-3.5
X5.7852Y-5.4
X5.845Y-3.5
X5.8852Y-5.4
X5.945Y-3.5
X5.9852Y-5.4
X6.045Y-3.5
X6.0852Y-5.4
X6.145Y-3.5
X6.245Y-3.5
X6.245Y-5.4
X6.345Y-5.4
X6.445Y-3.5
X6.445Y-5.4
X6.545Y-3.5
X6.545Y-5.4
X6.645Y-3.5
X6.645Y-5.4
X6.745Y-3.5
X6.745Y-5.4
X6.845Y-3.5
X6.845Y-5.4
X6.945Y-3.5
X6.945Y-5.4
T3
X8.6Y-3.7
X8.6Y-3.9
X8.6Y-4.1
X8.6Y-4.3
X8.6Y-4.6
X8.6Y-4.8
X8.6Y-5.0
X8.6Y-5.2
T4
X4.6949Y-2.6969
X4.6949Y-5.7087
X8.6024Y-3.3563
X8.6024Y-5.5512
T2
G00X4.46Y-3.0758
M15
G01X4.46Y-3.1742
M16
G05
G00X4.6962Y-3.0856
M15
G01X4.6962Y-3.1644
M16
G05
T0
M30
