%TF.GenerationSoftware,KiCad,Pcbnew,(5.99.0-11497-g0fb864d596)*%
%TF.CreationDate,2022-01-24T21:34:28-05:00*%
%TF.ProjectId,Main_Board_Ver2,4d61696e-5f42-46f6-9172-645f56657232,rev?*%
%TF.SameCoordinates,Original*%
%TF.FileFunction,Profile,NP*%
%FSLAX46Y46*%
G04 Gerber Fmt 4.6, Leading zero omitted, Abs format (unit mm)*
G04 Created by KiCad (PCBNEW (5.99.0-11497-g0fb864d596)) date 2022-01-24 21:34:28*
%MOMM*%
%LPD*%
G01*
G04 APERTURE LIST*
%TA.AperFunction,Profile*%
%ADD10C,0.050000*%
%TD*%
G04 APERTURE END LIST*
D10*
X215132464Y-80529857D02*
X221625000Y-80500000D01*
X112250000Y-73025000D02*
X114250000Y-73025000D01*
X129000000Y-82250000D02*
X181000000Y-82250000D01*
X210117953Y-89033000D02*
X213375000Y-89000000D01*
X185750000Y-89050000D02*
X210117953Y-89033000D01*
X110992953Y-139000277D02*
X111000000Y-139725000D01*
X213375000Y-89000000D02*
G75*
G03*
X214375000Y-88000000I0J1000000D01*
G01*
X127750000Y-74275000D02*
X127750000Y-74750000D01*
X214400000Y-138075000D02*
X214400000Y-144575000D01*
X112250000Y-140975000D02*
X114125000Y-140975000D01*
X183075000Y-140975000D02*
X126375000Y-140975000D01*
X115882464Y-149445143D02*
G75*
G02*
X115125000Y-148475000I242536J970143D01*
G01*
X214375000Y-88000000D02*
X214375000Y-81500000D01*
X116007464Y-64554857D02*
X122500000Y-64525000D01*
X209950001Y-137075000D02*
X213400000Y-137075000D01*
X224000000Y-137075000D02*
X223650000Y-137075000D01*
X184332048Y-138308000D02*
X184325000Y-139725000D01*
X116007464Y-64554857D02*
G75*
G03*
X115250000Y-65525000I242536J-970143D01*
G01*
X222625000Y-81500000D02*
G75*
G03*
X221625000Y-80500000I-1000000J0D01*
G01*
X184500000Y-83500000D02*
X184500000Y-87800000D01*
X127750000Y-74275000D02*
G75*
G03*
X126500000Y-73025000I-1250000J0D01*
G01*
X213400000Y-137075000D02*
G75*
G02*
X214400000Y-138075000I0J-1000000D01*
G01*
X215157464Y-145545143D02*
X221650000Y-145575000D01*
X111000000Y-74275000D02*
G75*
G02*
X112250000Y-73025000I1250000J0D01*
G01*
X215157464Y-145545143D02*
G75*
G02*
X214400000Y-144575000I242536J970143D01*
G01*
X183250000Y-82250000D02*
X181000000Y-82250000D01*
X112250000Y-140975000D02*
G75*
G02*
X111000000Y-139725000I0J1250000D01*
G01*
X123500000Y-65525000D02*
G75*
G03*
X122500000Y-64525000I-1000000J0D01*
G01*
X222650000Y-144575000D02*
G75*
G02*
X221650000Y-145575000I-1000000J0D01*
G01*
X124500000Y-73025000D02*
G75*
G02*
X123500000Y-72025000I0J1000000D01*
G01*
X115882464Y-149445143D02*
X122375000Y-149475000D01*
X129000000Y-82250000D02*
G75*
G02*
X127750000Y-81000000I0J1250000D01*
G01*
X225250000Y-135775000D02*
X225250000Y-135825000D01*
X222625000Y-81500000D02*
X222625000Y-88000000D01*
X185582048Y-137058000D02*
G75*
G03*
X184332048Y-138308000I0J-1250000D01*
G01*
X123375000Y-148475000D02*
X123375000Y-141975000D01*
X223650000Y-137075000D02*
G75*
G03*
X222650000Y-138075000I0J-1000000D01*
G01*
X225250000Y-90250000D02*
G75*
G03*
X224000000Y-89000000I-1250000J0D01*
G01*
X223625000Y-89000000D02*
G75*
G02*
X222625000Y-88000000I0J1000000D01*
G01*
X184500000Y-83500000D02*
G75*
G03*
X183250000Y-82250000I-1250000J0D01*
G01*
X115250000Y-72025000D02*
X115250000Y-65525000D01*
X185582048Y-137058000D02*
X209950001Y-137075000D01*
X225250000Y-135775000D02*
X225250000Y-90250000D01*
X215132464Y-80529857D02*
G75*
G03*
X214375000Y-81500000I242536J-970143D01*
G01*
X222650000Y-144575000D02*
X222650000Y-138075000D01*
X115125000Y-141975000D02*
X115125000Y-148475000D01*
X114125000Y-140975000D02*
G75*
G02*
X115125000Y-141975000I0J-1000000D01*
G01*
X124375000Y-140975000D02*
G75*
G03*
X123375000Y-141975000I0J-1000000D01*
G01*
X127750000Y-74750000D02*
X127750000Y-81000000D01*
X124500000Y-73025000D02*
X126500000Y-73025000D01*
X123500000Y-65525000D02*
X123500000Y-72025000D01*
X111000000Y-74275000D02*
X110992953Y-139000277D01*
X223625000Y-89000000D02*
X224000000Y-89000000D01*
X124375000Y-140975000D02*
X126375000Y-140975000D01*
X114250000Y-73025000D02*
G75*
G03*
X115250000Y-72025000I0J1000000D01*
G01*
X123375000Y-148475000D02*
G75*
G02*
X122375000Y-149475000I-1000000J0D01*
G01*
X225250000Y-135825000D02*
G75*
G02*
X224000000Y-137075000I-1250000J0D01*
G01*
X183075000Y-140975000D02*
G75*
G03*
X184325000Y-139725000I0J1250000D01*
G01*
X185750000Y-89050000D02*
G75*
G02*
X184500000Y-87800000I0J1250000D01*
G01*
M02*
