999
"DXF R12 Output" (www.mydxf.blogspot.com)
 0 
SECTION
 2 
HEADER
 9 
$ACADVER
 1 
AC1009
 9 
$EXTMIN
 10 
 0 
 20 
 0 
 9 
$EXTMAX
 10 
 8.5 
 20 
 11 
 0 
ENDSEC
 0 
SECTION
 2 
ENTITIES
0
LINE
8
Layer 1
10
0.846666
20
129.427000
11
-0.846666
21
127.733000
0
LINE
8
Layer 1
10
0.000000
20
129.991000
11
0.000000
21
127.169000
0
LINE
8
Layer 1
10
2.257780
20
127.451000
11
1.128890
21
126.322110
0
LINE
8
Layer 1
10
1.693330
20
128.016000
11
0.564440
21
126.887110
0
LINE
8
Layer 1
10
1.128890
20
128.580000
11
0.000000
21
127.451110
0
LINE
8
0
10
6.399990
20
-188.220000
11
6.178446
21
-186.550130
0
LINE
8
0
10
6.178446
20
-186.550130
11
5.542545
21
-185.020005
0
LINE
8
0
10
5.542545
20
-185.020005
11
4.535366
21
-183.704239
0
LINE
8
0
10
4.535366
20
-183.704239
11
3.199985
21
-182.677446
0
LINE
8
0
10
3.199985
20
-182.677446
11
1.643065
21
-182.034369
0
LINE
8
0
10
1.643065
20
-182.034369
11
-0.000010
21
-181.820010
0
LINE
8
0
10
-0.000010
20
-181.820010
11
-1.643085
21
-182.034369
0
LINE
8
0
10
-1.643085
20
-182.034369
11
-3.200005
21
-182.677446
0
LINE
8
0
10
-3.200005
20
-182.677446
11
-4.535386
21
-183.704239
0
LINE
8
0
10
-4.535386
20
-183.704239
11
-5.542564
21
-185.020005
0
LINE
8
0
10
-5.542564
20
-185.020005
11
-6.178461
21
-186.550130
0
LINE
8
0
10
-6.178461
20
-186.550130
11
-6.400000
21
-188.220000
0
LINE
8
0
10
-6.400000
20
-188.220000
11
-6.178458
21
-189.889870
0
LINE
8
0
10
-6.178458
20
-189.889870
11
-5.542560
21
-191.419995
0
LINE
8
0
10
-5.542560
20
-191.419995
11
-4.535381
21
-192.735761
0
LINE
8
0
10
-4.535381
20
-192.735761
11
-3.200000
21
-193.762554
0
LINE
8
0
10
-3.200000
20
-193.762554
11
-1.643080
21
-194.405631
0
LINE
8
0
10
-1.643080
20
-194.405631
11
-0.000005
21
-194.619990
0
LINE
8
0
10
-0.000005
20
-194.619990
11
1.643070
21
-194.405631
0
LINE
8
0
10
1.643070
20
-194.405631
11
3.199990
21
-193.762554
0
LINE
8
0
10
3.199990
20
-193.762554
11
4.535371
21
-192.735761
0
LINE
8
0
10
4.535371
20
-192.735761
11
5.542549
21
-191.419995
0
LINE
8
0
10
5.542549
20
-191.419995
11
6.178446
21
-189.889870
0
LINE
8
0
10
6.178446
20
-189.889870
11
6.399985
21
-188.220000
0
LINE
8
0
10
6.399985
20
-188.220000
11
6.399990
21
-188.220000
0
LINE
8
0
10
63.999900
20
-188.220000
11
63.858055
21
-183.955117
0
LINE
8
0
10
63.858055
20
-183.955117
11
63.437046
21
-179.742599
0
LINE
8
0
10
63.437046
20
-179.742599
11
62.743602
21
-175.594106
0
LINE
8
0
10
62.743602
20
-175.594106
11
61.784455
21
-171.521296
0
LINE
8
0
10
61.784455
20
-171.521296
11
60.566336
21
-167.535827
0
LINE
8
0
10
60.566336
20
-167.535827
11
59.095975
21
-163.649358
0
LINE
8
0
10
59.095975
20
-163.649358
11
57.380104
21
-159.873546
0
LINE
8
0
10
57.380104
20
-159.873546
11
55.425452
21
-156.220050
0
LINE
8
0
10
55.425452
20
-156.220050
11
53.238751
21
-152.700529
0
LINE
8
0
10
53.238751
20
-152.700529
11
50.826731
21
-149.326640
0
LINE
8
0
10
50.826731
20
-149.326640
11
48.196124
21
-146.110042
0
LINE
8
0
10
48.196124
20
-146.110042
11
45.353660
21
-143.062394
0
LINE
8
0
10
45.353660
20
-143.062394
11
42.306070
21
-140.195353
0
LINE
8
0
10
42.306070
20
-140.195353
11
39.060084
21
-137.520579
0
LINE
8
0
10
39.060084
20
-137.520579
11
35.622434
21
-135.049728
0
LINE
8
0
10
35.622434
20
-135.049728
11
31.999850
21
-132.794461
0
LINE
8
0
10
31.999850
20
-132.794461
11
28.235439
21
-130.784845
0
LINE
8
0
10
28.235439
20
-130.784845
11
24.376795
21
-129.043178
0
LINE
8
0
10
24.376795
20
-129.043178
11
20.437380
21
-127.569460
0
LINE
8
0
10
20.437380
20
-127.569460
11
16.430655
21
-126.363690
0
LINE
8
0
10
16.430655
20
-126.363690
11
12.370083
21
-125.425869
0
LINE
8
0
10
12.370083
20
-125.425869
11
8.269125
21
-124.755998
0
LINE
8
0
10
8.269125
20
-124.755998
11
4.141243
21
-124.354074
0
LINE
8
0
10
4.141243
20
-124.354074
11
-0.000100
21
-124.220100
0
LINE
8
0
10
-0.000100
20
-124.220100
11
-4.141443
21
-124.354074
0
LINE
8
0
10
-4.141443
20
-124.354074
11
-8.269325
21
-124.755998
0
LINE
8
0
10
-8.269325
20
-124.755998
11
-12.370283
21
-125.425869
0
LINE
8
0
10
-12.370283
20
-125.425869
11
-16.430855
21
-126.363690
0
LINE
8
0
10
-16.430855
20
-126.363690
11
-20.437580
21
-127.569460
0
LINE
8
0
10
-20.437580
20
-127.569460
11
-24.376995
21
-129.043178
0
LINE
8
0
10
-24.376995
20
-129.043178
11
-28.235639
21
-130.784845
0
LINE
8
0
10
-28.235639
20
-130.784845
11
-32.000050
21
-132.794461
0
LINE
8
0
10
-32.000050
20
-132.794461
11
-35.622634
21
-135.049728
0
LINE
8
0
10
-35.622634
20
-135.049728
11
-39.060284
21
-137.520579
0
LINE
8
0
10
-39.060284
20
-137.520579
11
-42.306269
21
-140.195353
0
LINE
8
0
10
-42.306269
20
-140.195353
11
-45.353858
21
-143.062394
0
LINE
8
0
10
-45.353858
20
-143.062394
11
-48.196321
21
-146.110042
0
LINE
8
0
10
-48.196321
20
-146.110042
11
-50.826926
21
-149.326640
0
LINE
8
0
10
-50.826926
20
-149.326640
11
-53.238942
21
-152.700529
0
LINE
8
0
10
-53.238942
20
-152.700529
11
-55.425639
21
-156.220050
0
LINE
8
0
10
-55.425639
20
-156.220050
11
-57.380286
21
-159.873546
0
LINE
8
0
10
-57.380286
20
-159.873546
11
-59.096151
21
-163.649358
0
LINE
8
0
10
-59.096151
20
-163.649358
11
-60.566504
21
-167.535827
0
LINE
8
0
10
-60.566504
20
-167.535827
11
-61.784613
21
-171.521296
0
LINE
8
0
10
-61.784613
20
-171.521296
11
-62.743748
21
-175.594106
0
LINE
8
0
10
-62.743748
20
-175.594106
11
-63.437179
21
-179.742599
0
LINE
8
0
10
-63.437179
20
-179.742599
11
-63.858173
21
-183.955117
0
LINE
8
0
10
-63.858173
20
-183.955117
11
-64.000000
21
-188.220000
0
LINE
8
0
10
-64.000000
20
-188.220000
11
-63.858164
21
-192.484883
0
LINE
8
0
10
-63.858164
20
-192.484883
11
-63.437162
21
-196.697401
0
LINE
8
0
10
-63.437162
20
-196.697401
11
-62.743725
21
-200.845894
0
LINE
8
0
10
-62.743725
20
-200.845894
11
-61.784584
21
-204.918704
0
LINE
8
0
10
-61.784584
20
-204.918704
11
-60.566470
21
-208.904173
0
LINE
8
0
10
-60.566470
20
-208.904173
11
-59.096113
21
-212.790642
0
LINE
8
0
10
-59.096113
20
-212.790642
11
-57.380245
21
-216.566454
0
LINE
8
0
10
-57.380245
20
-216.566454
11
-55.425595
21
-220.219950
0
LINE
8
0
10
-55.425595
20
-220.219950
11
-53.238896
21
-223.739471
0
LINE
8
0
10
-53.238896
20
-223.739471
11
-50.826879
21
-227.113360
0
LINE
8
0
10
-50.826879
20
-227.113360
11
-48.196272
21
-230.329958
0
LINE
8
0
10
-48.196272
20
-230.329958
11
-45.353809
21
-233.377606
0
LINE
8
0
10
-45.353809
20
-233.377606
11
-42.306219
21
-236.244647
0
LINE
8
0
10
-42.306219
20
-236.244647
11
-39.060234
21
-238.919421
0
LINE
8
0
10
-39.060234
20
-238.919421
11
-35.622584
21
-241.390272
0
LINE
8
0
10
-35.622584
20
-241.390272
11
-32.000000
21
-243.645539
0
LINE
8
0
10
-32.000000
20
-243.645539
11
-28.235589
21
-245.655155
0
LINE
8
0
10
-28.235589
20
-245.655155
11
-24.376945
21
-247.396822
0
LINE
8
0
10
-24.376945
20
-247.396822
11
-20.437530
21
-248.870540
0
LINE
8
0
10
-20.437530
20
-248.870540
11
-16.430805
21
-250.076310
0
LINE
8
0
10
-16.430805
20
-250.076310
11
-12.370233
21
-251.014131
0
LINE
8
0
10
-12.370233
20
-251.014131
11
-8.269275
21
-251.684002
0
LINE
8
0
10
-8.269275
20
-251.684002
11
-4.141393
21
-252.085926
0
LINE
8
0
10
-4.141393
20
-252.085926
11
-0.000050
21
-252.219900
0
LINE
8
0
10
-0.000050
20
-252.219900
11
4.141293
21
-252.085926
0
LINE
8
0
10
4.141293
20
-252.085926
11
8.269175
21
-251.684002
0
LINE
8
0
10
8.269175
20
-251.684002
11
12.370133
21
-251.014131
0
LINE
8
0
10
12.370133
20
-251.014131
11
16.430705
21
-250.076310
0
LINE
8
0
10
16.430705
20
-250.076310
11
20.437430
21
-248.870540
0
LINE
8
0
10
20.437430
20
-248.870540
11
24.376845
21
-247.396822
0
LINE
8
0
10
24.376845
20
-247.396822
11
28.235489
21
-245.655155
0
LINE
8
0
10
28.235489
20
-245.655155
11
31.999900
21
-243.645539
0
LINE
8
0
10
31.999900
20
-243.645539
11
35.622484
21
-241.390272
0
LINE
8
0
10
35.622484
20
-241.390272
11
39.060134
21
-238.919421
0
LINE
8
0
10
39.060134
20
-238.919421
11
42.306119
21
-236.244647
0
LINE
8
0
10
42.306119
20
-236.244647
11
45.353708
21
-233.377606
0
LINE
8
0
10
45.353708
20
-233.377606
11
48.196171
21
-230.329958
0
LINE
8
0
10
48.196171
20
-230.329958
11
50.826776
21
-227.113360
0
LINE
8
0
10
50.826776
20
-227.113360
11
53.238792
21
-223.739471
0
LINE
8
0
10
53.238792
20
-223.739471
11
55.425489
21
-220.219950
0
LINE
8
0
10
55.425489
20
-220.219950
11
57.380136
21
-216.566454
0
LINE
8
0
10
57.380136
20
-216.566454
11
59.096001
21
-212.790642
0
LINE
8
0
10
59.096001
20
-212.790642
11
60.566354
21
-208.904173
0
LINE
8
0
10
60.566354
20
-208.904173
11
61.784463
21
-204.918704
0
LINE
8
0
10
61.784463
20
-204.918704
11
62.743598
21
-200.845894
0
LINE
8
0
10
62.743598
20
-200.845894
11
63.437029
21
-196.697401
0
LINE
8
0
10
63.437029
20
-196.697401
11
63.858023
21
-192.484883
0
LINE
8
0
10
63.858023
20
-192.484883
11
63.999850
21
-188.220000
0
LINE
8
0
10
63.999850
20
-188.220000
11
63.999900
21
-188.220000
 0 
ENDSEC
 0 
EOF